<?xml version="1.0" encoding="UTF-8"?>
<svg height="128px" viewBox="0 0 128 128" width="128px" xmlns="http://www.w3.org/2000/svg" xmlns:xlink="http://www.w3.org/1999/xlink">
    <clipPath id="a">
        <rect height="43" width="47"/>
    </clipPath>
    <pattern id="b" height="43" patternTransform="matrix(0.851064 0 0 0.930233 340 140)" patternUnits="userSpaceOnUse" viewBox="0 0 47 43" width="47">
        <g clip-path="url(#a)">
            <path d="m 11.75 0 c -6.488281 0 -11.75 4.8125 -11.75 10.75 v 10.75 h 11.75 c 6.488281 0 11.75 -4.8125 11.75 -10.75 s -5.261719 -10.75 -11.75 -10.75 z m 23.5 21.5 c -6.488281 0 -11.75 -4.8125 -11.75 -10.75 v -10.75 h 11.75 c 6.488281 0 11.75 4.8125 11.75 10.75 s -5.261719 10.75 -11.75 10.75 z m -23.5 0 c 6.488281 0 11.75 4.8125 11.75 10.75 v 10.75 h -11.75 c -6.488281 0 -11.75 -4.8125 -11.75 -10.75 s 5.261719 -10.75 11.75 -10.75 z m 23.5 21.5 c 6.488281 0 11.75 -4.8125 11.75 -10.75 v -10.75 h -11.75 c -6.488281 0 -11.75 4.8125 -11.75 10.75 s 5.261719 10.75 11.75 10.75 z m 0 0" fill="#613583"/>
        </g>
    </pattern>
    <clipPath id="c">
        <path d="m 0 0 h 324 v 279 h -324 z m 0 0"/>
    </clipPath>
    <clipPath id="d">
        <rect height="334" width="324"/>
    </clipPath>
    <pattern id="e" height="334" patternTransform="matrix(0.999391 0.0348995 -0.0348995 0.999391 1139.755743 448.023172)" patternUnits="userSpaceOnUse" viewBox="0 0 324 334" width="324">
        <g clip-path="url(#d)">
            <g clip-path="url(#c)">
                <path d="m 0.117188 0 c 2.136718 6.761719 3.855468 13.523438 4.007812 20.300781 c 1.78125 -6.128906 2.789062 -13.136719 3.660156 -20.300781 z m 8.410156 0 c -0.019532 6.523438 -0.03125 13.046875 -0.953125 19.304688 c 1.855469 -5.632813 4.410156 -11.214844 8.132812 -16.714844 c -2.816406 6.816406 -4.164062 14.070312 -5.664062 21.277344 l 6.515625 -7.511719 c -2.511719 4.488281 -4.074219 8.8125 -5.722656 13.152343 c 3.3125 -3.851562 6.957031 -7.4375 11.96875 -9.941406 c -3.410157 2.863282 -6.941407 5.367188 -9.257813 11.421875 l 16.097656 -10.960937 c -4.191406 3.304687 -8.324219 6.644531 -10.558593 11.261718 c 3.832031 -2.378906 7.953124 -3.410156 12.476562 -2.585937 c -5.003906 0.414063 -10.183594 3.5 -15.402344 7.117187 c 2.492188 0.527344 4.921875 -0.007812 7.503906 2.011719 c -3.484374 -1.511719 -8.460937 -0.277343 -13.222656 0.5625 c 0 0 0.640625 0.867188 4.140625 3.484375 c 3.496094 2.617188 7.191407 11.375 7.191407 11.375 c -2.832032 -4.386718 -5.914063 -8.429687 -11.488282 -9.054687 c 5.121094 4.507812 5.011719 10.1875 6.402344 15.53125 l -9.1875 -14.109375 l -3.378906 18.128906 c -0.285156 -5.421875 -0.824219 -9.570312 -0.570313 -17.726562 c -1.339843 2.015624 -2.601562 4.09375 -3.550781 6.433593 v 29.679688 c 3.058594 3.542969 5.882812 2.257812 7.632812 1.179687 c 3.027344 -1.863281 4.339844 -4.289062 7.214844 -4.382812 c 3.582032 -0.113282 12.59375 0.535156 17.507813 -5.867188 c 3.832031 -4.992187 3.914062 -13.605468 2.023437 -18.871094 c -2.0625 -5.738281 -11.390625 -11.445312 -11.390625 -11.445312 s 2.230469 -0.683594 5.199219 -1.207031 c 2.375 -0.417969 7.511719 0.664062 12.875 -4.492188 c 2.09375 -2.011719 2.144531 -3.011719 2.429688 -5.691406 c 0.285156 -2.652344 3.917968 -4.460937 5.628906 -6.429687 c 1.710937 -1.964844 3.808594 -8.996094 2.496094 -13.664063 c -1.308594 -4.667969 -3.488282 -8.839844 -9.1875 -10.335937 c -1.074219 -0.28125 -1.972657 -0.601563 -2.800782 -0.929688 h -9.613281 c -3.199219 3.078125 -7.945313 8.429688 -7.945313 8.429688 s -0.109374 -3.847657 -0.976562 -8.429688 z m 106.96875 0 c 0.53125 2.332031 1.675781 4.179688 2.59375 5.332031 c 1.53125 1.921875 0.152344 3.40625 -1.175782 7.082031 c -1.332031 3.671876 4.175782 7.144532 10.109376 7.050782 c 7.242187 -0.113282 16.660156 -5.15625 16.660156 -5.15625 s -1.128906 4.550781 -1.933594 12.195312 c -0.433594 4.121094 -2.457031 5.910156 -2.101562 9.78125 c 0.480468 5.226563 3.585937 5.527344 5.59375 5.46875 c 3.195312 -0.097656 5.308593 -1.402344 7.59375 -0.183594 c 2.847656 1.515626 9.589843 6.066407 16.300781 3.273438 c 5.226562 -2.179688 9.15625 -8.863281 10.039062 -13.820312 c 0.964844 -5.402344 -3.757812 -14.042969 -3.757812 -14.042969 s 2.050781 0.464843 4.601562 1.390625 c 2.042969 0.738281 5.566407 3.886718 12.0625 2.269531 c 2.535157 -0.632813 3.023438 -1.390625 4.449219 -3.355469 c 1.410156 -1.941406 5.058594 -1.722656 7.277344 -2.488281 c 2.21875 -0.769531 7.003906 -5.316406 8.078125 -9.546875 c 0.445312 -1.761719 0.710937 -3.523438 0.625 -5.25 h -32.546875 c -2.105469 0.636719 -4.285156 1.648438 -6.636719 3.566406 l 17.480469 -1.332031 c -4.753906 0.695313 -9.476563 1.449219 -13.292969 4.050781 c 4.058594 -0.140625 7.738281 0.90625 10.898437 3.582032 c -4.09375 -1.921876 -9.519531 -1.839844 -15.214843 -1.355469 c 1.710937 1.527343 3.847656 2.199219 4.953125 4.933593 c -2.039063 -2.742187 -6.476563 -4.011718 -10.570313 -5.492187 c 0 0 0.113281 0.964844 1.667969 4.574219 c 1.554688 3.613281 0.507812 12.105468 0.507812 12.105468 c -0.238281 -4.691406 -0.832031 -9.230468 -4.902343 -12.21875 c 1.976562 5.816407 -0.65625 10.199219 -1.96875 14.992188 l -0.84375 -15.132812 l -10.765625 12.636718 c 2.207031 -4.363281 3.648437 -7.839844 7.507812 -14.09375 c -3.167968 1.578125 -6.25 3.371094 -8.824218 6.503906 c 1.417968 -5.148437 4.671874 -8.753906 7.546874 -10.316406 c -6.847656 -2.164062 -13.1875 -1.761718 -19.476562 -1.121094 c 4.34375 -2.558593 9.792969 -2.953124 15.789062 -2.269531 c -4.324218 -2.371093 -8.136718 -3.261719 -11.765624 -3.613281 z m 45.917968 0 c -0.203124 1.90625 -0.375 3.378906 -0.457031 3.796875 c -0.554687 2.800781 -0.25 4.375 1.878907 4.375 c 1.753906 -0.011719 2.734374 -0.851563 3.863281 -8.171875 z m 11.945313 0 c -0.488281 0.402344 -0.992187 0.792969 -1.484375 1.195312 c 1.246094 -0.4375 2.507812 -0.84375 3.785156 -1.195312 z m 62.609375 0 c -1.171875 0.636719 -2.101562 1.328125 -2.574219 1.914062 c -1.402343 1.742188 -2.46875 5.160157 -4.585937 5.730469 c -2.144532 0.574219 -2.949219 0.738281 -4.351563 2.820313 c -3.585937 5.34375 -2.136719 9.730468 -2.210937 11.871094 c -0.09375 2.675781 -0.398438 4.722656 -0.398438 4.722656 s -5.671875 -7.519532 -10.554687 -8.640625 c -4.488281 -1.03125 -11.46875 0.085937 -15.089844 4.058593 c -4.652344 5.097657 -3.121094 12.949219 -2.8125 16.113282 c 0.242187 2.542968 -1.578125 3.988281 -2.75 6.875 c -0.738281 1.8125 -1.546875 4.765625 2.695313 7.144531 c 3.144531 1.757813 5.34375 0.570313 8.96875 1.703125 c 6.71875 2.097656 10.945312 2.753906 10.945312 2.753906 s -7.476562 6.738282 -10.046875 13.316406 c -2.105469 5.394532 -1.0625 11.71875 2.492187 11.863282 c 3.550782 0.144531 5.273438 -0.566406 6.371094 1.546875 c 1 1.925781 3.128906 4.929687 6.890625 6.023437 c 3.757813 1.097656 10.023438 -4.261718 12.257813 -6.871094 c 2.449218 -2.863281 2.640625 -17.398437 2.277344 -19.027343 c 0.175781 0.394531 1.996093 4.492187 5.386718 12.992187 c 1.734375 4.347656 6.871094 10.34375 11.382813 8.761719 c 3.171875 -1.113281 1.929687 -3.738281 5.054687 -4.960937 c 2.378906 -0.929688 2.574219 -3.476563 3.472656 -4.917969 c 1.203126 -1.929688 5.242188 -3.605469 3.304688 -8.566407 c -1.65625 -4.234374 -2.175781 -7.980468 -2.175781 -7.980468 l -8.683594 -3.933594 l 2.683594 3.625 c -3.972657 -3.953125 -7.386719 -5.09375 -12.28125 -7.203125 c 3.269531 3.410156 7.289062 6.921875 9.609375 11.253906 c -4.351563 -4.523437 -8.882813 -7.445312 -13.433594 -10.644531 c 3.65625 4.699219 8.214844 13.09375 8.320312 15.578125 c -1.960937 -3.84375 -8.804687 -11.535156 -10.03125 -11.789063 c 3.535157 6.03125 6.453126 12.265626 8.28125 18.859376 c -3.75 -7.34375 -7.039062 -14.542969 -11.933593 -21.324219 c -0.617188 6.503906 -0.402344 13.027343 -5.222657 18.824219 c 1.65625 -5.640626 1.429688 -9.890626 1.125 -14.703126 c -0.550781 6.550782 -3.835937 10.949219 -7.03125 16.242188 c 2.121094 -6.808594 5.472657 -12.460938 4.414063 -22.265625 c -1.476563 5.734375 -3.671875 10.566406 -7.3125 13.589844 c 2.691406 -5.511719 5.195313 -11.160157 5.714844 -18.222657 c -2.300781 2.050782 -6.453125 3.6875 -11.28125 3.078126 c 3.523437 -1.191407 6.085937 -3.347657 8.503906 -5.65625 c -6.59375 1.207031 -10.019531 1.234374 -14.453125 1.640624 l 14.335938 -5.160156 l -12.472657 -6.386718 c 4.492188 0.582031 9.089844 -0.199219 13.316407 3.761718 c -1.128907 -4.832031 -4.75 -7.054687 -8.625 -9.011718 c 0 0 7.515624 2.191406 10.03125 4.953124 c 2.511718 2.761719 3.289062 3.21875 3.289062 3.21875 c 0.148438 -4.289062 0.597656 -8.816406 -1.019531 -11.703124 c 1.929687 2.027343 1.765625 4.230468 2.46875 6.363281 c 2.355469 -5.027344 4.28125 -9.960938 4.058593 -14.414063 c 1.175782 3.882813 0.796876 7.632813 -0.707031 11.289063 c 3.5 -2.523438 5.75 -6.5625 7.960938 -10.648438 l -7.101563 15.488281 c 4.65625 -2.769531 6.292969 -6.179687 8.238282 -9.527343 c -1.472657 4.714843 -3.976563 8.355469 -6.730469 11.730469 c 3.335937 -1.972657 6.671875 -3.867188 10.035156 -6.621094 l -5.371094 6.640625 c 5.679688 -2.1875 11.417969 -4.253907 16.632813 -7.554688 c -4.046875 3.941407 -8.292969 6.863281 -12.65625 9.175781 c 6.6875 -2.105468 13.957031 -2.824218 21.019531 -4.03125 c -7.535156 2.117188 -15.175781 4.15625 -21.445313 7.1875 c 7.019532 -0.871093 14.300782 0.46875 21.601563 1.996094 c -5.929687 -0.164062 -12.148437 -0.601562 -16.628906 0.605469 l 17.824219 8.273437 s 2.433593 -0.09375 3.691406 -4.394531 c 0.742187 -2.542969 3.171875 -2.089843 3.023437 -6.222656 c -0.097656 -2.671875 -1.402343 -7.410156 -3.125 -11.082031 c -0.550781 -1.167969 -0.714843 -2.105469 -1.050781 -2.867188 c -0.265625 -0.589844 -0.628906 -1.074218 -1.359375 -1.472656 c -6.132813 -3.347656 -16.339844 -2.0625 -16.339844 -2.0625 s 5.871094 -7.414062 7.144531 -9.933594 c 1.277344 -2.519531 -1.296874 -3.566406 -3.328124 -8.882812 c -0.894532 -2.34375 -2.214844 -3.871094 -3.78125 -4.902344 z m 57.269531 0 c -3.398437 0.539062 -4.488281 4.125 -6.058593 5.53125 c -1.457032 1.308594 -4.265626 1.929688 -4.910157 4.953125 c -0.84375 3.96875 -3.976562 2.867187 -4.691406 6.875 c -1.019531 5.695313 6.523437 10.992187 11.660156 12.425781 c 10.046875 2.796875 14.921875 4.371094 15.390625 4.523438 c -1.878906 -0.1875 -18.0625 2.265625 -20.847656 5.667968 c -2.542969 3.105469 -7.480469 11.503907 -5.632812 15.878907 c 1.847656 4.378906 5.550781 6.496093 7.867187 7.410156 c 2.539063 1.003906 2.03125 3.195313 2.78125 7.472656 c 0.753906 4.273438 7.980469 4.570313 13.644531 1.195313 c 6.910156 -4.117188 13.191406 -14.1875 13.191406 -14.1875 s 1.433594 5.007812 4.886719 12.8125 c 1.863281 4.214844 0.90625 7.050781 3.390625 10.585937 c 0.261719 0.371094 0.523438 0.695313 0.78125 0.992188 v -29.679688 c -0.589844 1.453125 -1.058594 3.007813 -1.347656 4.710938 c -1.421875 -5.511719 -0.421875 -10.574219 1.347656 -13.710938 v -0.34375 c -7.683594 1.730469 -13.519531 5.585938 -19.167968 9.644531 c 2.769531 -4.867187 7.796874 -8.261718 13.949218 -10.925781 c -11.113281 0.222657 -16.863281 5.140625 -24.105468 8.746094 c 5.375 -4.671875 9.734374 -9.316406 16.953124 -10.988281 c -5.421874 0.367187 -10.199218 0.742187 -16.214843 3.609375 c 5.664062 -6.71875 12.976562 -7.457031 20.128906 -9.199219 c -8.375 -4.878906 -16.953125 -7.753906 -25.769531 -11.167969 c 7.660156 1.203125 15.097656 3.777344 22.414062 7.128907 c -0.484375 -1.445313 -10.203125 -8.542969 -14.820312 -10.324219 c 2.789062 -0.257813 12.914062 3.972656 18.765625 7.671875 c -4.328125 -5.011719 -8.339844 -10.042969 -14.105469 -14.613282 c 5.214844 2.136719 9.800781 6.464844 14.144531 9.898438 c -3.160156 -5.597656 -5 -9.550781 -10.070312 -13.75 l 4.488281 2.6875 l -5.828125 -9.898438 s -4.261719 -0.054687 -9.261719 -1.410156 c -0.382812 -0.101562 -0.746094 -0.1718748 -1.089844 -0.222656 z m 15.519531 0 c 6.035157 12.203125 12.804688 26.847656 15.933594 33.929688 v -14.109376 c -3.328125 -5.972656 -8.195312 -13.300781 -12.742187 -19.820312 z m 7.503907 0 l 8.429687 14.03125 v -8.980469 c -0.21875 -1.648437 -0.480468 -3.34375 -0.765625 -5.050781 z m -316.261719 5.050781 v 8.980469 l 0.394531 0.65625 c 0.304688 -2.832031 0.066407 -6.136719 -0.394531 -9.636719 z m 77.636719 0.253907 c -0.226563 -0.003907 -0.453125 0.015624 -0.683594 0.054687 c -2.585937 0.441406 -1.890625 2.46875 -4.453125 2.992187 c -1.953125 0.402344 -2.367188 2.207032 -3.21875 3.140626 c -1.136719 1.253906 -4.457031 2.003906 -3.460938 5.785156 c 0.847657 3.226562 0.863282 5.976562 0.863282 5.976562 l 6.355468 3.804688 l -1.710937 -2.90625 c 2.683594 3.285156 5.222656 4.492187 8.816406 6.554687 c -2.195312 -2.816406 -4.960937 -5.792969 -6.316406 -9.164062 c 2.917969 3.738281 6.144531 6.347656 9.355469 9.160156 c -2.355469 -3.789063 -5.039063 -10.332031 -4.859375 -12.128906 c 1.128906 2.984375 5.660156 9.28125 6.585937 9.601562 c -2.125 -4.734375 -3.75 -9.542969 -4.488281 -14.484375 c 2.15625 5.699219 3.972656 11.242188 7.078125 16.664063 c 1.15625 -4.605469 1.667969 -9.3125 6.023438 -12.933594 c -1.878907 3.867187 -2.140626 6.941406 -2.402344 10.4375 c 1.109375 -4.648437 4.125 -7.4375 7.164062 -10.878906 c -2.359375 4.652343 -5.558594 8.335937 -5.753906 15.5 c 1.746094 -3.953125 3.957031 -7.179688 7.109375 -8.941407 c -2.667969 3.65625 -5.207031 7.433594 -6.34375 12.449219 c 2.003906 -1.214843 5.410156 -1.925781 9.105469 -0.941406 c -2.867188 0.460937 -5.089844 1.71875 -7.210938 3.105469 c 5.261719 -0.125 7.933594 0.242187 11.425782 0.449218 l -11.699219 2.09375 l 9.050781 5.988282 c -3.4375 -0.921875 -7.101562 -0.878906 -9.980469 -4.199219 c 0.375 3.597656 2.964844 5.601563 5.78125 7.445313 c 0 0 -5.625 -2.421876 -7.296875 -4.6875 c -1.671875 -2.265626 -2.230468 -2.683594 -2.230468 -2.683594 c -0.5625 3.0625 -1.378907 6.265625 -0.421876 8.519531 c -1.289062 -1.671875 -0.933593 -3.238281 -1.261718 -4.847656 c -2.355469 3.347656 -4.367188 6.671875 -4.660156 9.898437 c -0.511719 -2.921875 0.171874 -5.574218 1.726562 -8.03125 c -2.988281 1.417969 -5.160156 4.066406 -7.308594 6.753906 l 7.140625 -10.324218 c -3.914062 1.460937 -5.542969 3.726562 -7.40625 5.914062 c 1.636719 -3.222656 3.964844 -5.554687 6.464844 -7.667968 c -2.804687 1.039062 -5.601563 2.027343 -8.507813 3.625 l 4.875 -4.164063 c -4.65625 0.933594 -9.335937 1.765625 -13.742187 3.550781 c 3.5625 -2.375 7.171875 -3.996094 10.8125 -5.164062 c -5.429687 0.757812 -11.164063 0.457031 -16.792969 0.527344 c 6.089844 -0.671876 12.253906 -1.277344 17.449219 -2.746094 c -5.554687 -0.164063 -11.085937 -1.949219 -16.617187 -3.867188 c 4.601562 0.785156 9.402343 1.796875 13.015624 1.4375 l -13.019531 -7.953125 s -1.910156 -0.207031 -3.335937 2.742188 c -0.839844 1.742187 -2.6875 1.140625 -3 4.128906 c -0.203125 1.929687 0.324218 5.484375 1.285156 8.3125 c 0.304688 0.902344 0.328125 1.597656 0.519531 2.179687 c 0.140625 0.453126 0.375 0.84375 0.902344 1.210938 c 4.429687 3.09375 12.515625 3.320312 12.515625 3.320312 s -5.347656 4.664063 -6.601562 6.332032 c -1.253907 1.667968 0.640624 2.710937 1.671874 6.757812 c 0.933594 3.679688 3.617188 5.105469 6.621094 5.96875 c 3 0.867188 7.542969 -0.449218 8.820313 -1.542968 c 1.273437 -1.09375 2.457031 -3.429688 4.167969 -3.601563 c 1.730468 -0.171875 2.375 -0.199219 3.679687 -1.539063 c 3.347656 -3.429687 2.675781 -6.75 2.957031 -8.277343 c 0.347656 -1.914063 0.800782 -3.347657 0.800782 -3.347657 s 3.636718 6.042969 7.324218 7.398438 c 3.386719 1.246094 8.941406 1.230469 12.175782 -1.214844 c 4.148437 -3.136718 3.773437 -8.953125 3.863281 -11.261718 c 0.074219 -1.851563 1.644531 -2.6875 2.859375 -4.628907 c 0.761718 -1.21875 1.695312 -3.25 -1.359375 -5.433593 c -2.269531 -1.621094 -4.101563 -1.015626 -6.808594 -2.234376 c -5.015625 -2.265624 -8.238281 -3.210937 -8.238281 -3.210937 s 6.519531 -4 9.207031 -8.4375 c 2.203125 -3.636719 2.046875 -8.296875 -0.707031 -8.800781 s -4.167969 -0.1875 -4.804688 -1.828125 c -0.578125 -1.496094 -1.925781 -3.894531 -4.738281 -5.105469 s -8.25 1.933594 -10.261719 3.558594 c -2.207031 1.777344 -3.863281 12.199218 -3.75 13.410156 c -0.097656 -0.300781 -1.089844 -3.453125 -2.847656 -9.941406 c -0.84375 -3.109375 -3.867188 -7.601563 -7.269531 -7.628906 z m -22.175781 10.898437 c -0.140626 0.003906 -0.277344 0.023437 -0.414063 0.0625 c -0.808594 0.234375 -1.273437 1.078125 -1.039063 1.886719 c 0.234376 0.808594 1.082032 1.273437 1.890626 1.039062 c 0.808593 -0.234375 1.273437 -1.078125 1.039062 -1.886718 c -0.183594 -0.636719 -0.757812 -1.078126 -1.417969 -1.097657 c -0.019531 -0.003906 -0.039062 -0.003906 -0.058593 -0.003906 z m 4.027343 0.695313 c -0.191406 0.003906 -0.386719 0.03125 -0.570312 0.085937 c -1.171875 0.339844 -1.847657 1.570313 -1.507813 2.742187 c 0.339844 1.171876 1.566406 1.847657 2.738282 1.507813 c 1.175781 -0.339844 1.851562 -1.566406 1.511718 -2.742187 c -0.28125 -0.960938 -1.171875 -1.613282 -2.171875 -1.59375 z m -5.804687 2.535156 c -0.140625 0 -0.277344 0.019531 -0.414063 0.058594 c -0.808593 0.238281 -1.273437 1.082031 -1.039062 1.890624 c 0.238281 0.808594 1.082031 1.273438 1.890625 1.039063 s 1.273437 -1.082031 1.039062 -1.890625 c -0.183594 -0.632812 -0.757812 -1.078125 -1.414062 -1.097656 c -0.019532 0 -0.042969 0 -0.0625 0 z m 1.304687 0.191406 s 18.558594 14.308594 26.933594 17.960938 c 8.371094 3.652343 9.394531 3.429687 10.171875 2.117187 c 0.769531 -1.316406 -0.09375 -2.074219 -2.027344 -2.742187 c -1.929687 -0.671876 -28.730468 -13.171876 -35.078125 -17.335938 z m -54.988281 0.195312 v 14.109376 c 0.90625 2.050781 1.601562 3.664062 1.757812 4.128906 c 1.019532 3.003906 2.183594 4.351562 4.234376 3.175781 c 2.042968 -1.195313 2.402343 -2.777344 -3.171876 -15.804687 c -0.703124 -1.644532 -1.671874 -3.546876 -2.820312 -5.609376 z m 56.566406 2.175782 c -0.195312 0.003906 -0.386718 0.03125 -0.570312 0.085937 c -1.175782 0.339844 -1.851563 1.566407 -1.511719 2.742188 c 0.339844 1.171875 1.570313 1.847656 2.742187 1.507812 c 1.175782 -0.339843 1.851563 -1.566406 1.507813 -2.742187 c -0.277344 -0.960938 -1.167969 -1.617188 -2.167969 -1.59375 z m 170.75 18.296875 c -1.542968 0.03125 -2 0.625 -2.34375 1.535156 c -0.742187 1.941406 0.492188 2.808594 3.046875 3.339844 c 2.550781 0.535156 38.523438 12.292969 47.269531 16.722656 c 0 0 -25.945312 -15.851563 -37.140624 -19.179687 c -5.597657 -1.667969 -8.707032 -2.371094 -10.507813 -2.417969 c -0.113281 -0.003907 -0.222656 -0.003907 -0.324219 0 z m -227.101562 2.765625 c -0.074219 0.015625 -0.1406252 0.039062 -0.214844 0.054687 v 0.34375 c 0.0742188 -0.128906 0.140625 -0.277343 0.214844 -0.398437 z m 272.195312 9.851562 c -0.398437 0 -0.792968 0.09375 -1.160156 0.273438 c -1.414062 0.695312 -2.039062 2.503906 -1.398438 4.035156 c 0.644532 1.53125 2.308594 2.210938 3.722657 1.515625 c 1.414062 -0.695313 2.039062 -2.5 1.398437 -4.035156 c -0.414062 -0.992188 -1.285156 -1.667969 -2.285156 -1.773438 c -0.09375 -0.011719 -0.183594 -0.015625 -0.277344 -0.015625 z m 4.277344 4.804688 c -0.078125 0 -0.15625 0.003906 -0.234375 0.015625 c -0.203125 0.023437 -0.398437 0.082031 -0.585937 0.171875 c -0.972657 0.480468 -1.402344 1.726562 -0.960938 2.78125 c 0.441406 1.054687 1.589844 1.523437 2.5625 1.042968 c 0.972656 -0.476562 1.40625 -1.722656 0.964844 -2.777343 c -0.316406 -0.753907 -1 -1.226563 -1.746094 -1.234375 z m -128.40625 1.324218 c -0.816406 0.019532 -1.570312 0.21875 -2.433594 0.914063 c -7.230468 5.832031 -11.476562 19.066406 -11.476562 19.066406 s -5.140625 -11.058593 -7.292969 -13.925781 c -2.152344 -2.871094 -4.78125 -0.238281 -11.953125 -0.476562 c -6.527344 -0.21875 -10.160156 3.523437 -13.03125 8.066406 c -2.867188 4.542968 -2.867188 12.671875 -1.671875 15.304687 c 1.195313 2.628907 4.480469 5.703125 3.941406 8.605469 c -0.542969 2.941406 -0.808593 4.015625 0.777344 6.816406 c 4.066406 7.171875 9.863281 7.648438 12.253906 8.84375 c 2.988281 1.496094 5.140625 2.929688 5.140625 2.929688 s -11.714844 3.109375 -15.71875 8.546875 c -3.679687 4.996093 -6.3125 14.171875 -3.824218 20.683593 c 3.191406 8.355469 12.96875 10.519532 16.734374 11.773438 c 3.027344 1.011719 3.652344 4 6.277344 6.933594 c 1.648438 1.84375 4.550782 4.363281 9.621094 0.359375 c 3.761719 -2.964844 3.640625 -6.285157 6.953125 -10.167969 c 6.140625 -7.195312 9.246094 -12.0625 9.246094 -12.0625 s 3.480469 12.683594 9.519531 19.242188 c 4.949219 5.378906 12.71875 7.351562 14.871094 3.050781 c 2.148437 -4.304688 2.304687 -6.792969 5.316406 -7.054688 c 2.75 -0.238281 7.355469 -1.316406 10.703125 -5.378906 c 3.34375 -4.066406 0.761719 -14.546875 -0.957031 -18.652344 c -1.882813 -4.492187 -18.292969 -12.21875 -20.347656 -12.613281 c 0.542968 -0.011719 6.222656 -0.144531 17.777343 0.0625 c 5.910157 0.105469 15.597657 -3.132812 16.316407 -9.503906 c 0.507812 -4.480469 -3.167969 -4.304688 -2.808594 -8.785156 c 0.273437 -3.414063 -2.511719 -4.960938 -3.644532 -6.816407 c -1.523437 -2.480469 -1.167968 -8.316406 -7.890624 -8.488281 c -5.738282 -0.144531 -10.28125 -1.433594 -10.28125 -1.433594 l -9.324219 8.667969 l 5.617187 -1.433594 c -6.714844 2.851563 -9.921875 6.472657 -15.050781 11.414063 c 5.703125 -2.269532 11.941406 -5.414063 18.160156 -6.035156 c -7.574219 3.027343 -13.425781 7.101562 -19.605469 11.058593 c 7.382813 -2.078125 19.472657 -3.367187 22.355469 -2.214843 c -5.46875 0.433593 -18.035156 4.898437 -19.007812 6.277343 c 8.828125 -1.242187 17.546875 -1.621093 26.058593 -0.476562 c -10.4375 0.832031 -20.460937 1.171875 -30.902343 3.703125 c 7.046875 4.117187 14.578125 7.214844 18.46875 16.140625 c -5.480469 -4.949219 -10.4375 -6.859375 -16.078125 -8.964844 c 7.140625 4.058594 10.296875 10.375 14.527344 17.039063 c -6.550782 -6.125 -11.097657 -13.167969 -22.835938 -16.921876 c 5.691406 4.777344 9.957031 9.972657 11.359375 16.019532 c -4.761719 -6.160156 -9.777344 -12.15625 -17.515625 -16.4375 c 1.042969 3.890625 0.585938 9.851562 -2.808594 15.480468 c 0.613282 -4.949218 -0.402344 -9.222656 -1.675781 -13.386718 c -2.3125 8.746094 -4.195313 12.976562 -6.214844 18.648437 l 2.152344 -20.324219 l -14.226563 12.074219 c 3.171876 -5.230469 4.851563 -11.300781 11.714844 -14.464843 c -6.117187 -1.101563 -10.667968 2.21875 -15.0625 5.976562 c 0 0 6.695313 -8.128906 11.238282 -9.800781 c 4.542968 -1.675781 5.5 -2.390625 5.5 -2.390625 c -4.792969 -2.398438 -9.6875 -5.285156 -13.867188 -4.78125 c 3.378906 -1.332032 5.792969 0.007812 8.605469 0.238281 c -4.394531 -5.492187 -8.921875 -10.410156 -14.105469 -12.433594 c 5.066406 0.554688 9.117188 2.953125 12.433594 6.695313 c -0.914063 -5.613282 -4.246094 -10.46875 -7.652344 -15.300782 l 13.628906 16.734376 c -0.542968 -7.164063 -3.503906 -10.941407 -6.21875 -15.0625 c 4.53125 4.246093 7.269532 9.207031 9.566406 14.347656 c -0.378906 -5.132813 -0.667968 -10.21875 -1.914062 -15.78125 l 4.542969 10.042968 c 0.6875 -8.132812 1.550781 -16.261718 0.71875 -24.390624 c 2.210937 7.019531 3.15625 13.757812 3.347656 20.324218 c 1.347656 -9.324218 4.59375 -18.648437 7.171875 -27.972656 c -1.808594 10.371094 -3.761719 20.839844 -3.828125 30.125 c 2.9375 -9.097656 8.53125 -17.375 14.347656 -25.582031 c -3.5 7.21875 -7.472656 14.652343 -8.609375 20.800781 l 19.367188 -17.695312 s 1.257812 -3.046876 -2.925782 -6.8125 c -2.476562 -2.226563 -0.601562 -4.988282 -5.382812 -6.933594 c -3.089844 -1.261719 -9.207031 -2.09375 -14.339844 -1.863282 c -1.632812 0.074219 -2.792968 -0.207031 -3.847656 -0.1875 z m 121.378906 1.398438 c -0.398437 0 -0.792968 0.09375 -1.160156 0.273438 c -1.414062 0.695312 -2.039062 2.503906 -1.398438 4.035156 c 0.640626 1.535156 2.308594 2.210937 3.722657 1.515625 c 1.414062 -0.695313 2.039062 -2.503907 1.398437 -4.035157 c -0.414062 -0.992187 -1.285156 -1.667968 -2.285156 -1.773437 c -0.09375 -0.011719 -0.183594 -0.015625 -0.277344 -0.015625 z m -79.25 1.476562 c -1.449218 0 -2.621094 1.171876 -2.621094 2.621094 c 0 1.445313 1.171876 2.621094 2.621094 2.621094 c 1.445313 0 2.621094 -1.175781 2.621094 -2.621094 c 0 -1.449218 -1.175781 -2.621094 -2.621094 -2.621094 z m 84.628906 0.554688 c -0.078124 0 -0.15625 0.003906 -0.234374 0.015625 c -0.203126 0.023437 -0.398438 0.082031 -0.582032 0.171875 c -0.976562 0.480469 -1.40625 1.722656 -0.964844 2.78125 c 0.441407 1.054688 1.589844 1.523438 2.5625 1.042969 c 0.976563 -0.476563 1.40625 -1.722657 0.964844 -2.777344 c -0.3125 -0.753906 -1 -1.226563 -1.746094 -1.234375 z m -91.390624 1.515625 c -2.101563 0 -3.804688 1.703125 -3.804688 3.804687 c 0 2.101563 1.703125 3.804688 3.804688 3.804688 c 2.101562 0 3.804687 -1.703125 3.804687 -3.804688 c 0 -2.101562 -1.703125 -3.804687 -3.804687 -3.804687 z m 11.242187 2.410156 c -1.449219 0 -2.621094 1.171875 -2.621094 2.621094 c 0 1.445313 1.171875 2.621094 2.621094 2.621094 c 1.445313 0 2.621094 -1.175781 2.621094 -2.621094 c 0 -1.449219 -1.175781 -2.621094 -2.621094 -2.621094 z m -2.898437 0.910157 s -32.515626 23.789062 -42.558594 35.863281 c -10.039063 12.074219 -10.160156 13.871093 -8.367188 15.78125 c 1.792969 1.914062 3.46875 0.835937 5.5 -2.03125 c 2.03125 -2.871094 35.503906 -41.125 45.425782 -49.613281 z m -1.328126 3.949218 c -2.101562 0 -3.804687 1.703125 -3.804687 3.804688 c 0 2.101562 1.703125 3.804687 3.804687 3.804687 c 2.101563 0 3.804688 -1.703125 3.804688 -3.804687 c 0 -2.101563 -1.703125 -3.804688 -3.804688 -3.804688 z m -137.296874 0.429688 c -0.863282 0 -1.671876 0.277344 -2.359376 0.882812 c -3.136718 2.777344 -4.074218 4.738282 -6.59375 3.96875 c -2.296874 -0.703125 -6.367187 -1.332031 -10.394531 0.859375 c -4.027343 2.195313 -5.351562 11.503907 -5.300781 15.378907 c 0.058594 4.242187 10.796875 15.828124 12.328125 16.816406 c -0.445313 -0.167969 -5.074219 -1.910156 -14.339844 -5.839844 c -4.738281 -2.011719 -13.617187 -2.550781 -16.277343 2.363281 c -1.867188 3.453125 1.160156 4.507813 -0.589844 8.011719 c -1.332032 2.667969 0.410156 4.828125 0.726562 6.695312 c 0.417969 2.496094 -1.765625 7.097657 3.609375 9.425782 c 4.585938 1.984375 7.835938 4.503906 7.835938 4.503906 l 10.355469 -3.964844 l -5.003907 -0.667968 c 6.351563 -0.121094 10.121094 -2 15.875 -4.324219 c -5.347656 -0.023438 -11.410156 0.488281 -16.636719 -1.035157 c 7.105469 0.019532 13.160157 -1.367187 19.441407 -2.546874 c -6.644531 -0.730469 -16.828125 -3.625 -18.78125 -5.496094 c 4.558593 1.433594 16.164062 1.917968 17.398437 1.121094 c -7.539062 -1.871094 -14.703125 -4.402344 -21.207031 -8.101563 c 8.707031 2.726563 16.910156 5.714844 26.171875 7.070313 c -4.355469 -5.621094 -9.429688 -10.574219 -9.667969 -19.050782 c 2.820313 5.78125 6.199219 8.9375 10.070313 12.476563 c -4.445313 -5.605469 -4.9375 -11.734375 -6.183594 -18.492188 c 3.296875 7.078125 4.675781 14.246094 12.933594 21.101563 c -3.042969 -5.710938 -4.792969 -11.296875 -3.957032 -16.636719 c 1.839844 6.523437 3.9375 13.003906 8.796876 18.980469 c 0.421874 -3.480469 2.734374 -8.148438 7.3125 -11.589844 c -2.113282 3.800781 -2.683594 7.582031 -3.011719 11.359375 c 4.71875 -6.3125 7.617187 -9.117187 11.097656 -13.039063 l -8.359375 15.714844 l 15.425781 -5.121094 c -4.265625 3.195313 -7.597656 7.550782 -14.175781 7.871094 c 4.585938 2.882813 9.339844 1.683594 14.117188 0.078125 c 0 0 -8.054688 4.382813 -12.269532 4.257813 c -4.214844 -0.128906 -5.222656 0.140625 -5.222656 0.140625 c 3.089844 3.496093 6.105469 7.421875 9.644531 8.378906 c -3.164062 -0.027344 -4.679687 -1.894531 -6.875 -2.996094 c 1.761719 5.867188 3.816407 11.3125 7.347657 14.636719 c -3.914063 -2.097656 -6.40625 -5.355469 -7.863282 -9.457031 c -1.09375 4.832031 0.019532 9.839843 1.195313 14.851562 l -5.558594 -17.957031 c -1.894531 5.964844 -0.734375 9.980469 0.117187 14.191406 c -2.277343 -4.902344 -2.871093 -9.804687 -3.054687 -14.703125 c -1.367187 4.269531 -2.789063 8.46875 -3.59375 13.371094 l -0.398437 -9.589844 c -3.203126 6.34375 -6.546876 12.628907 -8.523438 19.464844 c 0.5 -6.390625 1.929688 -12.136719 3.914062 -17.503906 c -4.125 7.089843 -9.78125 13.566406 -14.902343 20.261719 c 4.835937 -7.792969 9.828125 -15.613282 12.898437 -23.089844 c -5.332031 6.390625 -12.546875 11.253906 -19.917968 15.992187 c 5.179687 -4.691406 10.808593 -9.40625 13.726562 -14 l -21.40625 7.988281 s -2.007812 2.050782 0.148438 6.457032 c 1.273437 2.605468 -1.140626 4.222656 2.085937 7.351562 c 2.089844 2.027344 6.757813 4.691406 10.980469 6.175782 c 1.34375 0.472656 2.1875 1.078124 3.046875 1.402343 c 0.667969 0.253907 1.339843 0.335938 2.261719 0.054688 c 7.738281 -2.355469 15.480468 -11.664063 15.480468 -11.664063 s 0.554688 10.605469 1.355469 13.625 c 0.804687 3.019532 3.785156 1.75 9.503906 4.277344 c 5.199219 2.300781 9.355469 0.460938 13.152344 -2.273438 c 3.796875 -2.734374 6.445313 -9.304687 6.335937 -11.816406 c -0.109374 -2.515625 -1.765624 -6.066406 -0.382812 -8.238281 c 1.394531 -2.195313 1.960938 -2.980469 1.589844 -5.757813 c -0.949219 -7.117187 -5.476563 -9.390624 -7.019532 -11.136718 c -1.925781 -2.179688 -3.195312 -4.039063 -3.195312 -4.039063 s 10.476562 1.304688 15.480469 -1.785156 c 4.597656 -2.839844 9.714843 -9.390625 9.828125 -15.460937 c 0.140625 -7.792969 -7.054688 -12.722657 -9.6875 -14.964844 c -2.117188 -1.800782 -1.648438 -4.421875 -2.8125 -7.644532 c -0.730469 -2.027343 -2.257813 -5.003906 -7.65625 -3.421874 c -4.003906 1.171874 -4.988282 3.890624 -8.929688 5.949218 c -7.300781 3.8125 -11.398437 6.734375 -11.398437 6.734375 s 1.320312 -11.382812 -1.417969 -18.644531 c -1.757812 -4.65625 -5.578125 -8.191406 -8.664062 -8.191406 z m 242.824218 11.839844 c -2.4375 -0.042969 -5.660156 1.636718 -7.933594 4.355468 c -4.226562 5.054688 -6.351562 14.539063 -6.351562 14.539063 s -2.464844 -3.484375 -7.25 -8.582031 c -2.582031 -2.75 -2.609375 -5.203126 -5.488281 -7.261719 c -3.886719 -2.777344 -5.941407 -0.816407 -7.09375 0.601562 c -1.835938 2.257813 -2.191407 4.488281 -4.390625 5.339844 c -2.738282 1.058594 -9.882813 2.996094 -11.945313 9.277344 c -1.609375 4.894531 0.660157 11.578125 3.550781 15.136719 c 3.144532 3.875 11.902344 5.761718 11.902344 5.761718 s -1.535156 1.132813 -3.691406 2.339844 c -1.722656 0.96875 -5.988281 1.523438 -8.734375 6.960938 c -1.074219 2.121093 -0.84375 2.90625 -0.335937 5.058593 c 0.496093 2.125 -1.820313 4.507813 -2.613282 6.492188 c -0.789062 1.984375 -0.503906 7.988281 1.773438 11.242187 c 2.277344 3.25 5.09375 5.886719 9.902344 5.5 c 5.289062 -0.429687 7.320312 1.421875 8.808593 -0.773437 c 1.488281 -2.191407 4.898438 -10.539063 4.898438 -10.539063 s 3.597656 9.625 9.140625 13.675782 c 0.660156 0.484374 1.222656 0.605468 1.828125 0.589843 c 0.777343 -0.019531 1.625 -0.265625 2.832031 -0.269531 c 3.800781 -0.007812 8.285156 -0.839844 10.523438 -1.878906 c 3.460937 -1.605469 1.980468 -3.578125 3.730468 -5.308594 c 2.957032 -2.925781 1.921875 -5.132812 1.921875 -5.132812 l -14.917969 -12.382813 c 1.054688 4.496094 4.246094 9.847656 7.085938 15.054687 c -4.582031 -5.859374 -9.003906 -11.773437 -11.488281 -18.386718 c 0.371093 6.851562 2.183593 14.511718 3.878906 22.109375 c -2.230469 -6.792969 -4.953125 -13.566407 -6.277344 -20.402344 c 0.09375 4.855469 -0.367187 9.863281 -1.757812 15.121094 c 0.332031 -6.03125 -0.589844 -12 -1.382813 -17.980469 l -3.003906 7.574219 c 0.726562 -4.152344 0.761719 -7.917969 0.859375 -11.71875 c -1.515625 3.875 -3.359375 7.632812 -6.558594 10.925781 c 1.859375 -3.136719 3.914063 -6.027344 4.0625 -11.335938 l -9.476562 12.832032 c 2.347656 -3.6875 4.636719 -7.390625 5.113281 -11.566406 c -2.316406 2.878906 -5.222656 4.792968 -8.945312 5.378906 c 3.757812 -1.675782 6.929687 -5.464844 9.980468 -9.671875 c -2.070312 0.269531 -3.800781 1.339843 -6.347656 0.476562 c 3.105469 0.226563 6.617188 -2.078125 10.074219 -4.015625 c 0 0 -0.734375 -0.496094 -4.144531 -1.574218 c -3.414063 -1.074219 -8.640626 -6.84375 -8.640626 -6.84375 c 3.375 2.625 6.851563 4.914062 11.332032 3.886718 c -5.179688 -2.09375 -6.632813 -6.515625 -9.15625 -10.269531 l 10.925781 8.417969 l -2.300781 -14.929688 c 1.6875 4.113282 3.226562 7.175782 5.242187 13.550782 c 0.792969 -3.121094 1.394531 -6.308594 0.765625 -9.945313 c 2.703125 4.039063 3.25 8.425781 2.617188 11.332031 c 5.5625 -3.429687 9.054687 -8.035156 12.355468 -12.75 c -0.824218 4.515625 -3.789062 8.5 -7.824218 12.226563 c 8.53125 -3.183594 11.644531 -8.542969 16.265625 -13.292969 c -2.886719 5.070312 -5 9.839844 -10.128907 13.089844 c 4.09375 -1.753906 7.683594 -3.335938 11.558594 -7.183594 c -2.5625 6.726562 -8.011718 9.277344 -13.070312 12.5625 c 7.796875 1.503906 15.207031 1.402344 22.945312 1.652344 c -6.246094 1.144531 -12.695312 1.167968 -19.257812 0.5625 c 0.765625 0.984375 10.199218 3.839844 14.253906 3.96875 c -2.085938 0.953125 -11.058594 0.421875 -16.582031 -0.851563 c 4.699219 2.703125 9.164062 5.507813 14.859375 7.476563 c -4.613282 -0.242188 -9.328125 -2.34375 -13.617188 -3.820313 c 3.960938 3.46875 6.457032 6.027344 11.511719 7.902344 l -4.199219 -0.863281 l 7.1875 6.070312 s 3.3125 -1.109375 7.542969 -1.417968 c 4.957031 -0.359376 4.492187 -4.65625 5.527344 -6.542969 c 0.773437 -1.40625 2.773437 -2.648438 2.453125 -5.15625 c -0.421875 -3.296875 2.296875 -3.296875 1.765625 -6.585938 c -0.753907 -4.679687 -8.019531 -6.730469 -12.378907 -6.445312 c -8.523437 0.558593 -12.722656 0.660156 -13.125 0.667969 c 1.503907 -0.363282 13.351563 -6.644532 14.582032 -10.027344 c 1.125 -3.089844 2.664062 -10.917969 0.050781 -13.800782 c -2.613281 -2.886718 -6.046875 -3.519531 -8.085937 -3.597656 c -2.234376 -0.089844 -2.4375 -1.917968 -4.175782 -5.019531 c -0.597656 -1.066406 -1.660156 -1.5625 -2.9375 -1.585937 z m -85.71875 33.019531 c -0.867187 0.027343 -1.511718 0.558593 -1.964844 1.003906 c -1.289062 1.261719 -1.664062 2.609375 -3.078124 2.980469 c -1.757813 0.460937 -6.292969 1.15625 -8.003907 4.878906 c -1.332031 2.902344 -0.402343 7.175781 1.128907 9.570312 c 1.667968 2.605469 6.925781 4.378907 6.925781 4.378907 s -1.023438 0.589843 -2.4375 1.183593 c -1.128907 0.476563 -3.792969 0.519532 -5.863281 3.675782 c -0.8125 1.230468 -0.722657 1.730468 -0.5625 3.09375 c 0.160156 1.34375 -1.4375 2.648437 -2.0625 3.8125 c -0.625 1.167968 -0.867188 4.882812 0.304687 7.046875 c 1.175781 2.160156 2.726563 3.980469 5.714844 4.078125 c 3.285156 0.105468 4.410156 1.386718 5.480469 0.140625 c 1.070312 -1.246094 3.75 -6.144531 3.75 -6.144531 s 1.542968 6.175781 4.671874 9.058593 c 0.375 0.34375 0.714844 0.457031 1.085938 0.492188 c 0.480469 0.039062 1.019531 -0.050781 1.765625 0.027343 c 2.339844 0.261719 5.160156 0.0625 6.609375 -0.417968 c 2.242188 -0.746094 1.46875 -2.066406 2.667969 -3.007813 c 2.027343 -1.597656 1.542969 -3.027343 1.542969 -3.027343 l -8.320313 -8.667969 c 0.335937 2.839843 1.925781 6.359375 3.308594 9.765625 c -2.410157 -3.929688 -4.71875 -7.878906 -5.789063 -12.125 c -0.25 4.246094 0.332032 9.089844 0.84375 13.882812 c -0.898437 -4.335937 -2.101562 -8.695312 -2.4375 -13 c -0.28125 2.996094 -0.917968 6.046875 -2.140625 9.1875 c 0.625 -3.691406 0.476563 -7.429687 0.40625 -11.167968 l -2.378906 4.453124 c 0.738281 -2.503906 1.023437 -4.820312 1.347656 -7.15625 c -1.203125 2.28125 -2.601562 4.46875 -4.800781 6.273438 c 1.363281 -1.804688 2.832031 -3.441406 3.292969 -6.699219 l -6.734375 7.238281 c 1.703125 -2.105468 3.375 -4.226562 3.960937 -6.761718 c -1.628906 1.609375 -3.554687 2.582031 -5.886719 2.683594 c 2.429688 -0.769532 4.648438 -2.878907 6.824219 -5.257813 c -1.292969 0.023437 -2.4375 0.558594 -3.941406 -0.148437 c 1.894531 0.355468 4.21875 -0.816407 6.480469 -1.769532 c 0 0 -0.414063 -0.355468 -2.441406 -1.257812 c -2.027344 -0.902344 -4.84375 -4.820313 -4.84375 -4.820313 c 1.898437 1.851563 3.875 3.503907 6.707031 3.1875 c -3.042969 -1.652343 -3.628907 -4.476562 -4.921875 -6.964843 l 6.140625 5.945312 l -0.371094 -9.351562 c 0.753906 2.652343 1.484375 4.640624 2.28125 8.710937 c 0.707031 -1.867187 1.296875 -3.789063 1.164063 -6.070313 c 1.382812 2.671876 1.414062 5.414063 0.820312 7.160157 c 3.667969 -1.722657 6.140625 -4.316407 8.5 -6.988281 c -0.820312 2.722656 -2.929688 4.96875 -5.671875 6.980468 c 5.476563 -1.363281 7.765625 -4.445312 10.945313 -7.046875 c -2.132813 2.917969 -3.765626 5.710938 -7.152344 7.351563 c 2.640625 -0.792969 4.964844 -1.515625 7.617187 -3.613282 c -2.046875 3.960938 -5.582031 5.152344 -8.925781 6.820313 c 4.695312 1.472656 9.269531 1.929687 14.015625 2.625 c -3.925781 0.265625 -7.898437 -0.167969 -11.898437 -1.003906 c 0.402343 0.660156 6.011718 3.078125 8.5 3.441406 c -1.351563 0.441406 -6.839844 -0.511719 -10.152344 -1.683594 c 2.707031 1.992188 5.257812 4.03125 8.628906 5.644531 c -2.824219 -0.472656 -5.582031 -2.097656 -8.117188 -3.304687 c 2.195313 2.414063 3.550782 4.164063 6.535157 5.667969 l -2.527344 -0.824219 l 4.003906 4.242187 s 2.113281 -0.453124 4.742188 -0.347656 c 3.078125 0.125 3.09375 -2.554687 3.863281 -3.640625 c 0.574219 -0.8125 1.890625 -1.4375 1.871094 -3.003906 c -0.03125 -2.0625 1.644531 -1.871094 1.546875 -3.933594 c -0.140625 -2.933593 -4.46875 -4.707031 -7.171875 -4.835937 c -5.289063 -0.25 -7.878906 -0.480469 -8.128906 -0.503906 c 0.949218 -0.117188 8.683593 -3.15625 9.679687 -5.15625 c 0.910156 -1.820313 2.40625 -6.535157 0.996094 -8.496094 c -1.40625 -1.957032 -3.480469 -2.585938 -4.726563 -2.777344 c -1.371094 -0.210938 -1.367187 -1.355469 -2.222656 -3.386719 c -0.851562 -2.03125 -4.464844 -1.363281 -6.886719 0.949219 c -2.957031 2.816406 -4.929687 8.507812 -4.929687 8.507812 s -1.273438 -2.316406 -3.863282 -5.789062 c -1.398437 -1.875 -1.242187 -3.390625 -2.871093 -4.859375 c -0.960938 -0.867187 -1.773438 -1.148437 -2.445313 -1.128906 z m 65.707032 1.945312 c -0.492188 -0.023437 -0.964844 0.21875 -1.4375 0.773438 c -1.257813 1.472656 -1.105469 2.792969 6.730468 11.355469 c 7.835938 8.5625 32.679688 24.988281 32.679688 24.988281 c -7.625 -5.917969 -33.679688 -32.988281 -35.28125 -35.035157 c -1 -1.28125 -1.871094 -2.046874 -2.691406 -2.082031 z m -213.195313 0.054688 c -0.851563 0.023437 -1.917969 0.515625 -3.207031 1.34375 c -2.578125 1.65625 -42.074219 21.660156 -52.855469 25.285156 c 0 0 34.015625 -8.628906 46.058594 -15.113281 c 12.046875 -6.484375 12.726562 -7.894532 11.902343 -10.023438 c -0.414062 -1.0625 -1.046874 -1.515625 -1.898437 -1.492187 z m -52.476563 17.484375 c -1.332031 0.003906 -2.550781 0.816406 -3.058593 2.074218 c -0.683594 1.699219 0.136719 3.628907 1.832031 4.3125 c 1.699219 0.683594 3.628906 -0.136718 4.3125 -1.832031 c 0.6875 -1.699219 -0.136719 -3.628906 -1.832031 -4.3125 c -0.269531 -0.109375 -0.550781 -0.183593 -0.839844 -0.21875 c -0.136719 -0.015625 -0.277344 -0.023437 -0.414063 -0.019531 z m 204.34375 1.777344 c -0.253906 0.007812 -0.511718 0.128906 -0.785156 0.386718 c -0.878906 0.820313 -0.878906 1.644532 3.351563 7.464844 c 4.226562 5.820312 18.375 17.671875 18.375 17.671875 c -4.28125 -4.179687 -18.433594 -22.671875 -19.273438 -24.042969 c -0.582031 -0.945312 -1.109375 -1.496094 -1.667969 -1.480468 z m -209.738281 2.761718 c -0.914062 0.007813 -1.746093 0.566406 -2.089843 1.429688 c -0.472657 1.167968 0.09375 2.496094 1.261718 2.96875 c 1.171875 0.472656 2.5 -0.09375 2.972656 -1.265625 c 0.46875 -1.167969 -0.097656 -2.496094 -1.265624 -2.96875 c -0.222657 -0.089844 -0.457032 -0.144531 -0.695313 -0.160157 c -0.0625 -0.003906 -0.125 -0.007812 -0.183594 -0.003906 z m 8.695313 3.621094 c -1.332032 0.003906 -2.550782 0.8125 -3.058594 2.074219 c -0.683594 1.695312 0.136719 3.625 1.832031 4.308593 c 1.699219 0.683594 3.628907 -0.136718 4.3125 -1.832031 c 0.683594 -1.699219 -0.136719 -3.628906 -1.835937 -4.3125 c -0.265625 -0.109375 -0.546875 -0.179687 -0.835938 -0.214843 c -0.136718 -0.019532 -0.277344 -0.027344 -0.414062 -0.023438 z m -6.535156 1.457031 c -0.914063 0.007813 -1.746094 0.566407 -2.089844 1.429688 c -0.472656 1.167969 0.09375 2.496093 1.261718 2.96875 c 1.171876 0.472656 2.5 -0.09375 2.972657 -1.265625 c 0.46875 -1.167969 -0.097657 -2.496094 -1.265625 -2.96875 c -0.222656 -0.089844 -0.457032 -0.144532 -0.695313 -0.160156 c -0.0625 -0.003907 -0.121093 -0.007813 -0.183593 -0.003907 z m 305.5625 1.472657 c -0.023438 0 -0.046876 0 -0.070313 0.003906 c -1.550781 0.074218 -2.75 1.390625 -2.675781 2.941406 c 0.074218 1.550781 1.390625 2.75 2.941406 2.675781 s 2.75 -1.390625 2.675781 -2.941406 c -0.074219 -1.527344 -1.351562 -2.714844 -2.871093 -2.679687 z m 3.351562 5.1875 c -0.015625 0 -0.035156 0 -0.050781 0.003906 c -1.066407 0.050781 -1.890625 0.957031 -1.839844 2.027344 c 0.050781 1.066406 0.957031 1.890624 2.023437 1.839843 c 1.070313 -0.050781 1.894532 -0.957031 1.84375 -2.027343 c -0.050781 -1.050782 -0.929687 -1.867188 -1.976562 -1.84375 z m -8.277344 0.425781 c -0.019531 0 -0.046875 0 -0.070312 0.003906 c -1.550782 0.074219 -2.75 1.390625 -2.675782 2.941406 c 0.074219 1.550781 1.390626 2.746094 2.941407 2.671875 c 1.550781 -0.070312 2.75 -1.390625 2.675781 -2.941406 c -0.074219 -1.523438 -1.351562 -2.710938 -2.871094 -2.675781 z m 5.128906 3.039062 c -0.015624 0 -0.035156 0.003907 -0.050781 0.003907 c -1.070312 0.050781 -1.894531 0.957031 -1.84375 2.027343 c 0.050781 1.066407 0.957031 1.890625 2.027344 1.839844 c 1.066406 -0.046875 1.894531 -0.957031 1.84375 -2.023437 c -0.050781 -1.054688 -0.929687 -1.871094 -1.976563 -1.847657 z m -77.644531 2.230469 c -0.902343 0.007812 -1.65625 0.714844 -1.71875 1.628906 c -0.0625 0.960938 0.667969 1.792969 1.625 1.855469 c 0.960938 0.0625 1.792969 -0.664063 1.855469 -1.625 s -0.664062 -1.792969 -1.625 -1.855469 c -0.046875 -0.003906 -0.089844 -0.003906 -0.136719 -0.003906 z m -3.421875 3.113281 c -0.902344 0.007813 -1.660156 0.714844 -1.71875 1.628907 c -0.0625 0.960937 0.664063 1.789062 1.621094 1.851562 c 0.960938 0.0625 1.792969 -0.664062 1.855469 -1.625 c 0.0625 -0.957031 -0.664063 -1.789062 -1.625 -1.851562 c -0.042969 -0.003907 -0.089844 -0.003907 -0.132813 -0.003907 z m 5.179688 0.320313 c -0.621094 0.007812 -1.140625 0.492187 -1.183594 1.121094 c -0.042969 0.660156 0.457031 1.234374 1.121094 1.277343 c 0.660156 0.042969 1.230468 -0.457031 1.273437 -1.121093 c 0.042969 -0.660157 -0.457031 -1.230469 -1.117187 -1.277344 c -0.03125 0 -0.0625 0 -0.09375 0 z m -229.726563 0.050781 c -0.128906 0.003906 -0.261719 0.023437 -0.390625 0.0625 c -0.699218 0.199219 -1.105468 0.925781 -0.90625 1.625 c 0.199219 0.695313 0.925782 1.101563 1.621094 0.902344 c 0.699219 -0.195313 1.105469 -0.921875 0.90625 -1.621094 c -0.167969 -0.632813 -0.675781 -0.976563 -1.230469 -0.96875 z m 2.835938 1.539063 c -0.140625 0 -0.292969 0.023437 -0.453125 0.070312 c -0.699219 0.199219 -1.105469 0.925781 -0.90625 1.625 c 0.199218 0.699219 0.925781 1.101562 1.621094 0.90625 c 0.699218 -0.199219 1.09375 -0.585938 1.023437 -1.3125 c -0.109375 -0.726562 -0.59375 -1.285156 -1.285156 -1.289062 z m 224.707031 0.324218 c -0.621094 0.007813 -1.140625 0.488282 -1.183594 1.121094 c -0.042968 0.660156 0.457032 1.230469 1.121094 1.277344 c 0.660156 0.042968 1.234375 -0.457032 1.277344 -1.121094 c 0.042968 -0.660156 -0.460938 -1.234375 -1.121094 -1.277344 c -0.03125 0 -0.0625 0 -0.09375 0 z m 76.785156 0 c -0.296875 0.007813 -0.632812 0.074219 -1.023437 0.238282 c -2.976563 1.21875 -3.210938 6.335937 -2.351563 9.171874 c 1.679688 5.542969 2.390625 8.300782 2.460938 8.566407 c -0.472656 -0.9375 -6.445313 -7.796875 -8.871094 -8.089844 c -2.214844 -0.269531 -7.625 -0.082031 -9.128906 2.089844 c -1.5 2.167969 -1.390625 4.539062 -1.132813 5.894531 c 0.289063 1.492188 -0.890625 3.820312 -2.671875 5.445312 c -1.785156 1.628907 0.230469 3.191407 3.503906 4.84375 c 3.988282 2.015626 10.585938 1.960938 10.585938 1.960938 s -1.921875 2.164062 -4.554688 6.109375 c -1.421874 2.132813 -3.039062 2.527344 -3.957031 4.746094 c -1.234375 2.996093 0.375 4.050781 1.488281 4.59375 c 1.777344 0.863281 3.304688 0.757812 4.207032 2.082031 c 1.121094 1.644531 3.5 6.066406 7.96875 6.460938 c 3.480468 0.3125 7.546875 -2.214844 9.453125 -4.671876 c 2.078125 -2.675781 1.976562 -8.753906 1.976562 -8.753906 s 0.984375 0.839844 2.113281 2.078125 c 0.605469 0.664063 1.289063 2.105469 2.871094 3.28125 v -8.816406 c -1.175781 -0.648437 -2.433594 -1.25 -3.769531 -1.8125 c 0.496094 1.328125 1.472656 2.308594 1.292969 4.121094 c -0.328125 -2.085938 -2.390625 -4.050781 -4.203125 -6.035157 c 0 0 -0.214844 0.558594 -0.402344 2.980469 c -0.1875 2.417969 -3.191406 6.761719 -3.191406 6.761719 c 1.210937 -2.636719 2.191406 -5.285156 0.824219 -8.085938 c -0.589844 3.746094 -3.285157 5.386719 -5.378907 7.632813 l 3.878907 -8.515625 l -9.507813 3.816406 c 2.457031 -1.75 4.242187 -3.238281 8.148437 -5.550781 c -2.183593 -0.042969 -4.386718 0.050781 -6.691406 1.023437 c 2.25 -2.40625 5.066406 -3.441406 7.085938 -3.46875 c -3.125 -3.148437 -6.703125 -4.75 -10.328125 -6.203124 c 3.109375 -0.152344 6.203125 1.195312 9.285156 3.289062 c -3.417969 -5.148438 -7.4375 -6.378906 -11.289063 -8.703125 c 3.792969 1.128906 7.273438 1.789063 10.207032 4.675781 c -1.785156 -2.433594 -3.386719 -4.5625 -6.523438 -6.527344 c 4.839844 0.65625 7.363282 3.863282 10.3125 6.703126 c -0.207031 -5.386719 -1.414062 -10.265626 -2.4375 -15.417969 c 1.714844 3.949219 2.726563 8.207031 3.332032 12.636719 c 0.535156 -0.65625 0.96875 -7.332032 0.429687 -10.027344 c 0.949219 1.230468 1.980469 7.242187 1.992187 11.089844 c 1.0625 -3.523438 2.226563 -6.90625 2.652344 -10.972657 c 0.546875 3.085938 -0.113281 6.523438 -0.429687 9.585938 c 1.683593 -3.152344 2.988281 -5.191407 3.449219 -8.820313 l 0.074218 2.90625 l 1.1875 -2.320312 v -7.082032 c -0.128906 -0.347656 -0.261718 -0.667968 -0.378906 -1.046874 c -1 -3.21875 -3.769531 -2.25 -5.171875 -2.644532 c -1.050781 -0.296875 -2.179687 -1.425781 -3.785156 -0.828125 c -1.71875 0.636719 -2.316407 -0.429687 -3.601563 -0.390625 z m -306.726562 0.421875 c -0.167969 0.003907 -0.332032 0.027344 -0.492188 0.074219 c -1.015625 0.285156 -1.601562 1.339844 -1.316406 2.355469 c 0.289062 1.011719 1.34375 1.601562 2.355469 1.3125 c 1.015625 -0.285157 1.601562 -1.339844 1.316406 -2.355469 c -0.234375 -0.828125 -1 -1.398438 -1.863281 -1.386719 z m 3.585937 0.207031 c -1.265625 2.75 -4.949219 8.824219 -8.613281 14.667969 v 5.644531 c 4.089844 -8.175781 8.613281 -20.3125 8.613281 -20.3125 z m 0.878907 2.183594 c -0.164063 0.003906 -0.332032 0.027344 -0.492188 0.074219 c -1.011719 0.285156 -1.601562 1.339844 -1.3125 2.355469 c 0.285156 1.011718 1.339844 1.601562 2.355469 1.3125 c 1.011719 -0.285156 1.3125 -1.300782 1.3125 -2.355469 c 0 -0.863281 -1 -1.398437 -1.863281 -1.386719 z m 241.546874 0.605469 c -5.363281 0.027344 -11.285156 4.566406 -14.027343 8.839844 c -3.085938 4.804687 -2.511719 15.355469 -2.511719 15.355469 s -1.605469 -1.386719 -3.464844 -3.453126 c -1.488281 -1.652343 -3.285156 -6.320312 -9.664062 -7.722656 c -2.488282 -0.546875 -3.230469 -0.035156 -5.296875 1.222656 c -2.042969 1.238282 -5.160157 -0.640624 -7.425781 -0.910156 c -2.265626 -0.269531 -8.355469 1.953125 -11.046876 5.574219 c -2.691406 3.617187 -4.597656 7.652344 -2.816406 12.996094 c 1.953125 5.875 0.636719 8.769531 3.316406 9.765625 c 2.683594 1 12.238282 2.226562 12.238282 2.226562 s -8.863282 7.140625 -11.441406 14.722656 c -0.304688 0.902344 -0.269532 1.582032 -0.078126 2.265626 h -0.003906 c 0.246094 0.878906 0.742188 1.761718 1.09375 3.132812 c 1.097656 4.3125 3.238282 9.148438 4.945313 11.363281 c 2.644531 3.425781 4.246093 1.117188 6.527343 2.558594 c 3.859376 2.433594 5.832032 0.558594 5.832032 0.558594 l 8.457031 -20.878907 c -4.324219 2.621094 -8.910156 7.945313 -13.453125 12.820313 c 4.710938 -7.0625 9.527344 -13.960937 15.613281 -18.878906 c -6.9375 2.59375 -14.296875 7.078125 -21.621093 11.414062 c 6.347656 -4.6875 12.53125 -9.925781 19.179687 -13.597656 c -4.964844 1.640625 -10.246094 2.703125 -16.050781 2.792969 c 6.292968 -1.535156 12.171875 -4.476563 18.089844 -7.269532 l -8.648438 -1.011718 c 4.476562 -0.492188 8.359375 -1.644532 12.296875 -2.738282 c -4.417969 -0.496093 -8.816406 -1.402343 -13.117187 -3.992187 c 3.761718 1.121094 7.324218 2.539063 12.824218 1.023437 l -15.914062 -6.699218 c 4.464844 1.496094 8.929687 2.925781 13.359375 2.144531 c -3.625 -1.71875 -6.425781 -4.417969 -8.09375 -8.460937 c 2.800781 3.738281 7.601562 6.140624 12.804687 8.277343 c -0.867187 -2.269531 -2.46875 -3.898437 -2.308594 -7.0625 c 0.65625 3.597657 4.03125 6.863281 7.015626 10.171875 c 0 0 0.300781 -0.988281 0.429687 -5.207031 s 4.558594 -11.988281 4.558594 -11.988281 c -1.726563 4.667968 -3.085938 9.34375 -0.746094 14.109375 c 0.671875 -6.550781 4.800781 -9.601563 7.933594 -13.660157 l -5.519531 15.082032 l 14.691406 -7.34375 c -3.75 3.226562 -6.453125 5.941406 -12.433594 10.25 c 3.4375 -0.082032 6.890625 -0.410156 10.445312 -2.277344 c -3.375 4.351562 -7.726562 6.363281 -10.898437 6.5625 c 5.121094 5.238281 10.855469 7.75 16.648437 10.003906 c -4.875 0.496094 -9.824218 -1.613281 -14.8125 -5.019531 c 5.71875 8.6875 12.121094 10.527344 18.332032 14.273437 c -6.042969 -1.675781 -11.554688 -2.5625 -16.363282 -7.363281 c 2.976563 4.09375 5.632813 7.675781 10.699219 10.859375 c -7.648437 -0.777344 -11.835937 -6.164062 -16.664062 -10.875 c 0.6875 9.339844 2.917969 17.730469 4.878906 26.601563 c -2.96875 -6.734375 -4.839844 -14.054688 -6.097656 -21.707031 c -0.792969 1.183593 -1.023438 12.808593 0.007812 17.453124 c -1.578125 -2.066406 -3.605469 -12.429687 -3.878906 -19.113281 c -1.433594 6.199219 -3.035156 12.160157 -3.429687 19.261719 c -1.074219 -5.320312 -0.261719 -11.347656 0.027343 -16.6875 c -2.433593 5.597656 -4.347656 9.246094 -4.824219 15.585938 l -0.316406 -5.046876 l -4.183594 10.09375 s 2.089844 3.410157 3.621094 8.121094 c 1.792969 5.519532 6.078125 3.628906 8.3125 4.207032 c 1.667969 0.433593 3.519532 2.316406 6.007813 1.15625 c 3.269531 -1.527344 4.046875 1.566406 7.277343 -0.082032 c 4.59375 -2.339844 4.621094 -11.246094 3.078126 -16.113281 c -3.015626 -9.507813 -4.328126 -14.242187 -4.449219 -14.699219 c 0.800781 1.59375 10.65625 13.066406 14.488281 13.394532 c 3.5 0.296874 11.992188 -0.429688 14.207031 -4.316407 c 2.214844 -3.882812 1.882813 -7.988281 1.378907 -10.328125 c -0.546876 -2.566406 1.277343 -3.378906 3.96875 -6.335937 c 2.691406 -2.960938 -0.714844 -8.851563 -5.96875 -11.480469 c -6.40625 -3.199219 -16.769532 -2.609375 -16.769532 -2.609375 s 2.875 -3.90625 6.746094 -10.957031 c 2.085938 -3.808594 4.601562 -4.617188 5.894531 -8.539063 c 1.742188 -5.296875 -0.863281 -7.011719 -2.652343 -7.871093 c -2.847657 -1.371094 -5.242188 -1.070313 -6.75 -3.300782 c -1.871094 -2.773437 -5.914063 -10.277344 -12.964844 -10.632812 c -0.171875 -0.007813 -0.34375 -0.011719 -0.515625 -0.011719 z m -106.324218 0.164063 c -0.035156 0.003906 -0.070313 0.003906 -0.105469 0.007812 c -0.570313 0.066406 -1.035156 0.496094 -1.148437 1.058594 c -0.144532 0.71875 0.320312 1.421875 1.039062 1.566406 s 1.421875 -0.320312 1.566406 -1.039062 c 0.144532 -0.71875 -0.320312 -1.421876 -1.039062 -1.566407 c -0.105469 -0.019531 -0.207032 -0.03125 -0.3125 -0.027343 z m 20.59375 0.289062 c -1.300782 0.0625 -1.820313 1.183594 -3.601563 0.675781 c -1.667969 -0.480469 -2.71875 0.75 -3.753906 1.125 c -1.382813 0.507813 -4.25 -0.253906 -5.011719 3.070313 c -0.648437 2.839844 -1.746094 4.96875 -1.746094 4.96875 l 3.371094 5.507812 l -0.148437 -2.9375 c 0.746093 3.625 2.222656 5.582032 4.164062 8.628906 c -0.554687 -3.0625 -1.492187 -6.480468 -1.175781 -9.632812 c 0.746094 4.066406 2.183594 7.386719 3.527344 10.855469 c -0.289063 -3.878907 0.285156 -10.019531 1.148437 -11.335938 c -0.335937 2.761719 0.621094 9.457031 1.210938 10.082031 c 0.269531 -4.515624 0.953125 -8.890624 2.378906 -13.007812 c -0.632813 5.277344 -1.472656 10.292969 -1.261719 15.738281 c 2.753906 -3.089843 5.050782 -6.523437 9.878906 -7.5625 c -3.011718 2.230469 -4.457031 4.5 -6.074218 7.09375 c 2.738281 -3.140625 6.195312 -4.078125 9.933594 -5.507812 c -3.703126 2.640625 -7.660157 4.191406 -10.707032 9.652343 c 2.945313 -2.351562 5.957032 -3.949218 9.105469 -4.039062 c -3.542969 1.746094 -7.027344 3.640625 -9.933594 7.058594 c 2.039063 -0.128906 4.957031 0.695312 7.417969 2.949218 c -2.402344 -0.800781 -4.628906 -0.726562 -6.824219 -0.511718 c 4.113281 2.027344 6.03125 3.390625 8.644531 4.964844 l -9.886718 -3.113282 l 4.574218 8.289063 c -2.285156 -2.105469 -5.132812 -3.550781 -6.015624 -7.28125 c -1.160157 2.933593 0.03125 5.527343 1.460937 8.089843 c 0 0 -3.371094 -4.144531 -3.746094 -6.570312 s -0.636719 -2.972656 -0.636719 -2.972656 c -1.675781 2.140625 -3.601562 4.285156 -3.773437 6.414062 c -0.320313 -1.816406 0.585937 -2.882812 0.984375 -4.257812 c -3.171875 1.632812 -6.070312 3.390625 -7.597656 5.765625 c 0.785156 -2.464844 2.386718 -4.238281 4.578125 -5.507813 c -2.882813 -0.113281 -5.632813 1.054688 -8.375 2.265625 l 9.6875 -5.09375 c -3.617188 -0.453125 -5.789063 0.640625 -8.113281 1.578125 c 2.566406 -1.828125 5.308593 -2.691406 8.09375 -3.316406 c -2.589844 -0.328125 -5.144532 -0.695312 -8.039063 -0.632812 l 5.449219 -1.25 c -3.972656 -1.160157 -7.925782 -2.402344 -12.050782 -2.804688 c 3.710938 -0.398438 7.15625 -0.191406 10.4375 0.375 c -4.5 -1.609375 -8.808593 -4.15625 -13.1875 -6.375 c 4.976563 1.9375 9.984376 3.964844 14.59375 4.925781 c -4.226562 -2.371093 -7.78125 -5.984375 -11.277343 -9.699219 c 3.238281 2.464844 6.535156 5.1875 9.476562 6.367188 l -6.851562 -11.40625 s -1.390625 -0.929688 -3.679688 0.773438 c -1.359375 1.007812 -2.539062 -0.203126 -3.988281 1.976562 c -0.9375 1.410156 -1.964844 4.367188 -2.367188 6.945312 c -0.128906 0.816407 -0.382812 1.367188 -0.480468 1.890626 c -0.070313 0.410156 -0.046875 0.804687 0.210937 1.304687 c 2.171875 4.179687 8.328125 7.621094 8.328125 7.621094 s -6.015625 1.445312 -7.65625 2.226562 c -1.644531 0.78125 -0.601562 2.351563 -1.441406 5.894531 c -0.761719 3.222657 0.734375 5.40625 2.707031 7.289063 c 1.96875 1.882813 6.011719 2.699219 7.4375 2.371094 c 1.429688 -0.332031 3.285157 -1.65625 4.675781 -1.097657 c 1.40625 0.566407 1.914063 0.804688 3.464844 0.296876 c 3.976563 -1.300782 4.796875 -4.132813 5.628906 -5.203126 c 1.042969 -1.335937 1.972657 -2.261718 1.972657 -2.261718 s 0.371093 6.136718 2.671875 8.675781 c 2.113281 2.328125 6.410156 4.5625 9.898437 3.976563 c 4.476563 -0.746094 6.535157 -5.390626 7.535157 -7.136719 c 0.808593 -1.402344 2.355468 -1.414063 4.078124 -2.425781 c 1.082032 -0.632813 2.625 -1.824219 1.144532 -4.746094 c -1.097656 -2.167969 -2.757813 -2.441406 -4.355469 -4.480469 c -2.960937 -3.773437 -5.070313 -5.808594 -5.070313 -5.808594 s 6.65625 -0.457031 10.523438 -2.796875 c 3.171875 -1.921875 4.933594 -5.585937 3.007812 -7.089844 c -1.921874 -1.5 -3.140624 -1.828124 -2.96875 -3.351562 c 0.15625 -1.390625 0.082032 -3.789062 -1.601562 -5.859375 c -1.683594 -2.074219 -7.15625 -1.839844 -9.367188 -1.398437 c -2.425781 0.484374 -7.914062 7.867187 -8.316406 8.847656 c 0.046875 -0.273438 0.550782 -3.109375 1.816406 -8.832032 c 0.644532 -2.925781 0.007813 -8.070312 -3.085937 -9.066406 c -0.410156 -0.132812 -0.75 -0.175781 -1.050781 -0.160156 z m -165.308594 1.039062 v 7.082032 l 1.71875 -3.367188 s -0.914062 -1.539062 -1.71875 -3.714844 z m 142.039062 0.449219 c -0.035156 0.003907 -0.070312 0.003907 -0.105468 0.007813 c -0.570313 0.066406 -1.035156 0.492187 -1.152344 1.058594 c -0.144531 0.71875 0.320312 1.421874 1.042969 1.566406 c 0.71875 0.144531 1.417969 -0.320313 1.566406 -1.039063 c 0.144531 -0.71875 -0.320313 -1.421875 -1.042969 -1.566406 c -0.101562 -0.019531 -0.207031 -0.03125 -0.308594 -0.027344 z m 5.308594 0.332031 c -0.039062 0 -0.082031 0 -0.125 0.003907 c -0.871094 0.054687 -1.597656 0.6875 -1.769531 1.542969 c -0.210937 1.046874 0.464844 2.0625 1.507813 2.273437 c 1.046874 0.210937 2.0625 -0.464844 2.273437 -1.507813 c 0.210937 -1.046874 -0.464844 -2.0625 -1.507813 -2.273437 c -0.125 -0.027344 -0.25 -0.039063 -0.378906 -0.039063 z m -3.726562 0.488282 s 8.5625 18.558594 13.558594 24.761718 c 4.992187 6.207032 5.875 6.445313 7.003906 5.746094 c 1.132812 -0.699218 0.765625 -1.636718 -0.457032 -2.9375 c -1.222656 -1.296875 -16.878906 -21.785156 -20.105468 -27.570312 z m -34.980469 2.144531 c -0.074219 0 -0.148437 0.007813 -0.222656 0.019531 c -0.191407 0.03125 -0.378907 0.089844 -0.554688 0.183594 c -0.921875 0.488281 -1.351562 1.707031 -0.949219 2.722656 c 0.398438 1.011719 1.472657 1.4375 2.398438 0.949219 s 1.351562 -1.707031 0.953125 -2.71875 c -0.285156 -0.722656 -0.921875 -1.167969 -1.625 -1.15625 z m 34.390625 0.125 c -0.042969 0 -0.085938 0 -0.128906 0.003906 c -0.871094 0.054688 -1.597656 0.6875 -1.769532 1.542969 c -0.210937 1.046875 0.464844 2.0625 1.511719 2.273438 c 1.042969 0.210937 2.058594 -0.464844 2.269531 -1.507813 c 0.210938 -1.046875 -0.460937 -2.0625 -1.507812 -2.273437 c -0.125 -0.027344 -0.25 -0.039063 -0.375 -0.039063 z m -134.226562 1.183594 c -0.964844 -0.066407 -1.472657 0.332031 -1.472657 0.332031 l -5.886719 11.761719 c 2.8125 -1.386719 5.855469 -4.320313 8.859376 -6.996094 c -3.144532 3.902344 -6.351563 7.707031 -10.304688 10.367187 v 0.023438 c 4.449219 -1.304688 9.203125 -3.660156 13.9375 -5.9375 c -4.148438 2.519531 -8.203125 5.359375 -12.515625 7.285156 c 3.191406 -0.808594 6.574219 -1.273437 10.261719 -1.164062 c -4.035156 0.710937 -7.839844 2.238281 -11.667969 3.683594 l 5.464844 0.816406 c -1.957031 0.109375 -3.734375 0.421875 -5.480469 0.761718 v 0.910157 c 1.976562 0.425781 3.933594 1.070312 5.835938 2.214843 c -1.121094 -0.355468 -3.734376 -0.890624 -5.835938 -1.222656 v 1.269532 l 7.65625 3.300781 c 2.519531 1.085937 -4.359375 -1.453125 -7.65625 -1.585938 v 0.433594 c 1.863281 1.074219 3.3125 2.554687 4.15625 4.636719 c -0.992188 -1.3125 -2.46875 -2.359375 -4.15625 -3.292969 v 8.816406 c 0.777344 0.578125 1.753906 1.097657 3.074219 1.417969 c 1.566406 0.382812 2.050781 0.109375 3.394531 -0.554688 c 1.328125 -0.65625 3.257812 0.507813 4.691406 0.726563 c 1.433594 0.214844 5.355469 -0.898437 7.152344 -2.902344 c 1.800781 -2.003906 3.109375 -4.269531 2.113281 -7.390625 c -1.097656 -3.425781 -0.1875 -5.054687 -1.867187 -5.703125 c -1.679688 -0.644531 -7.714844 -1.613281 -7.714844 -1.613281 s 5.804688 -3.859375 7.628906 -8.144531 c 0.21875 -0.511719 0.210938 -0.902344 0.105469 -1.296875 c -0.128906 -0.511719 -0.425781 -1.03125 -0.613281 -1.832032 c -0.59375 -2.507812 -1.832032 -5.34375 -2.863282 -6.664062 c -1.589843 -2.039062 -2.667968 -0.757812 -4.078124 -1.644531 c -0.898438 -0.566407 -1.640626 -0.773438 -2.21875 -0.8125 z m 103.933593 0.316406 c -0.070312 0.003906 -0.144531 0.007813 -0.21875 0.019531 c -0.191406 0.03125 -0.378906 0.089844 -0.550781 0.183594 c -0.925781 0.488281 -1.355469 1.707031 -0.953125 2.722656 c 0.398437 1.011719 1.472656 1.4375 2.398437 0.949219 c 0.925782 -0.488281 1.351563 -1.707031 0.953126 -2.71875 c -0.285157 -0.722656 -0.921876 -1.167969 -1.628907 -1.15625 z m -2.371093 1.820313 s -14.230469 27.648437 -17.320313 39.496093 c -3.089844 11.851563 -2.671875 13.144531 -0.996094 13.878907 c 1.675781 0.734374 2.449219 -0.582032 2.957031 -3.28125 c 0.507813 -2.695313 11.355469 -40.796876 15.359376 -50.09375 z m -5.070313 0.199218 c -0.40625 -0.003906 -0.8125 0.097656 -1.183594 0.292969 c -1.34375 0.710937 -1.964843 2.480469 -1.382812 3.949219 c 0.578125 1.472656 2.136719 2.089844 3.480469 1.378906 c 1.34375 -0.707031 1.964843 -2.476562 1.382812 -3.949219 c -0.375 -0.949219 -1.183594 -1.585937 -2.125 -1.664062 c -0.058594 -0.003907 -0.117188 -0.007813 -0.171875 -0.007813 z m 6.492187 2.722656 c -0.40625 -0.003906 -0.808593 0.09375 -1.183593 0.292969 c -1.34375 0.710938 -1.960938 2.476563 -1.382813 3.949219 s 2.140625 2.089844 3.480469 1.378906 c 1.34375 -0.707031 1.964844 -2.476562 1.382813 -3.949218 c -0.375 -0.949219 -1.183594 -1.585938 -2.125 -1.664063 c -0.058594 -0.003906 -0.113282 -0.007813 -0.171876 -0.007813 z m 212.902344 0.605469 c -4.261718 6.800781 -8.515625 13.296875 -9.109375 14.035157 c -1.105469 1.371093 -1.390625 2.320312 -0.226562 2.929687 c 1.167969 0.601563 2.015625 0.300781 6.46875 -6.195313 c 0.875 -1.28125 1.863281 -3.117187 2.867187 -5.125 z m -232.039062 0.722657 c -0.105469 0.003906 -0.210938 0.007812 -0.324219 0.015624 c -2.324219 0.160157 -6.464844 1.640626 -9.683594 3.539063 c -1.027343 0.601563 -1.84375 0.796875 -2.511719 1.167969 c -0.519531 0.289062 -0.945312 0.683594 -1.304687 1.460937 c -3.015625 6.527344 -2.078125 17.234375 -2.078125 17.234375 s -6.339844 -6.011718 -8.507812 -7.292968 c -2.167969 -1.285157 -3.125 1.449218 -7.777344 3.703124 c -4.234375 2.050782 -5.523438 5.902344 -6.105469 10.054688 c -0.578125 4.148438 1.664063 9.84375 3.152344 11.28125 c 1.492187 1.441406 4.441406 2.480469 4.898437 4.699219 c 0.464844 2.242187 0.59375 3.085937 2.378906 4.511719 c 4.578126 3.648437 8.417969 2.027343 10.277344 2.054687 c 2.324219 0.039063 4.09375 0.316406 4.09375 0.316406 s -6.632812 6.132813 -7.691406 11.296875 c -0.972656 4.742188 -0.125 12.058594 3.261719 15.78125 c 4.347656 4.773438 11.195312 2.988282 13.953125 2.59375 c 2.210937 -0.316406 3.4375 1.570313 5.925781 2.738282 c 1.5625 0.734374 4.113281 1.515624 6.253906 -3 c 1.582031 -3.347657 0.589844 -5.628907 1.636719 -9.472657 c 1.941406 -7.113281 2.585938 -11.570312 2.585938 -11.570312 s 5.726562 7.707031 11.398437 10.265625 c 4.648437 2.09375 10.160156 0.851562 10.347656 -2.890625 c 0.191407 -3.738281 -0.398437 -5.535157 1.457031 -6.734375 c 1.691407 -1.097656 4.339844 -3.40625 5.359376 -7.382813 c 1.015624 -3.976562 -3.53125 -10.449219 -5.761719 -12.742187 c -2.441407 -2.511719 -15.070313 -2.382813 -16.492188 -1.964844 c 0.34375 -0.191406 3.941407 -2.203125 11.386719 -5.957031 c 3.808594 -1.921875 9.109375 -7.460938 7.8125 -12.171875 c -0.914062 -3.308594 -3.214844 -1.941406 -4.222656 -5.203125 c -0.765625 -2.484375 -2.972656 -2.628907 -4.210938 -3.542969 c -1.65625 -1.222656 -3.042968 -5.429688 -7.390625 -3.28125 c -3.707031 1.835938 -6.96875 2.46875 -6.96875 2.46875 l -3.570312 9.21875 l 3.195312 -2.902344 c -3.503906 4.269532 -4.558593 7.886719 -6.472656 13.082032 c 3.019531 -3.515626 6.140625 -7.828126 9.945313 -10.363282 c -4.007813 4.679688 -6.625 9.511719 -9.484376 14.367188 c 4.148438 -3.949219 11.523438 -8.933594 13.683594 -9.097656 c -3.375 2.148437 -10.179687 9.519531 -10.421875 10.816406 c 5.304688 -3.855469 10.773438 -7.0625 16.535157 -9.136719 c -6.449219 4.109375 -12.765626 7.734375 -18.742188 13.03125 c 5.644531 0.503906 11.316406 0.128906 16.265625 5.066406 c -4.871094 -1.613281 -8.566406 -1.277343 -12.757813 -0.847656 c 5.6875 0.433594 9.449219 3.789063 13.992188 7.027344 c -5.878906 -2.074219 -10.730469 -5.472657 -19.269531 -4.136719 c 4.957031 1.421875 9.117187 3.621094 11.683593 7.382812 c -4.746093 -2.707031 -9.609374 -5.214843 -15.738281 -5.597656 c 1.742188 2.371094 3.09375 6.703125 2.476563 11.792969 c -0.972656 -3.675781 -2.800782 -6.328125 -4.765625 -8.8125 c 0.933593 6.90625 0.898437 10.507813 1.171875 15.160156 l -4.234375 -14.960937 l -5.765625 13.261718 c 0.585937 -4.734374 -0.011719 -9.554687 3.503906 -14.089843 c -4.21875 1.296875 -6.214844 5.15625 -7.984375 9.273437 c 0 0 2.035156 -7.953125 4.480469 -10.660156 c 2.441406 -2.707031 2.855468 -3.53125 2.855468 -3.53125 c -3.726562 -0.0625 -7.652343 -0.429688 -10.1875 1.332031 c 1.796876 -2.074219 3.707032 -1.949219 5.570313 -2.738281 c -4.324219 -2.363281 -8.578125 -4.277344 -12.453125 -3.945312 c 3.394531 -1.320313 6.648438 -1.011719 9.800781 0.492187 c -2.132812 -3.625 -5.605469 -5.902344 -9.117187 -8.136719 l 13.335937 7.121094 c -2.324219 -4.835938 -5.261719 -6.480469 -8.132812 -8.453125 c 4.066406 1.445313 7.1875 3.996094 10.074219 6.820313 c -1.65625 -3.464844 -3.246094 -6.929688 -5.578126 -10.40625 l 5.675782 5.5 c -1.804688 -5.929688 -3.496094 -11.914063 -6.269532 -17.328126 c 3.351563 4.171876 5.816407 8.570313 7.746094 13.105469 c -1.707031 -6.984375 -2.207031 -14.613281 -3.132812 -22.015625 c 1.707031 7.875 3.347656 15.867188 5.867187 22.394532 c -0.632812 -7.363282 0.664063 -15.050782 2.117188 -22.765626 c -0.246094 6.238282 -0.734375 12.789063 0.234375 17.476563 l 7.5 -18.933594 s -0.035156 -2.5625 -3.753906 -3.785156 c -2.058594 -0.679687 -1.800782 -2.976563 -4.722657 -3.054687 c -0.097656 -0.003907 -0.199219 -0.003907 -0.304687 0 z m 232.039062 9.078124 c -0.027344 0.015626 -0.050781 0.035157 -0.074218 0.050782 c 0.023437 -0.007813 0.050781 -0.015625 0.074218 -0.023438 z m 0 5.472657 c -0.796875 0.15625 -1.601562 0.308593 -2.394531 0.472656 c 0.800781 0.113281 1.601563 0.261719 2.394531 0.433594 z m -2.742187 1.625 c -0.421875 0.035156 -0.367188 0.203125 0.460937 0.558593 l 2.28125 0.984376 v -1.265626 c -1.21875 -0.191406 -2.277344 -0.320312 -2.742187 -0.277343 z m 1.96875 3.246093 c 0.277343 0.132813 0.515625 0.300782 0.773437 0.449219 v -0.4375 c -0.265625 -0.007812 -0.558594 -0.035156 -0.773437 -0.007812 z m -83.042969 6.171876 c -1.519531 -0.039063 -3.382812 2.121093 -8.710938 11.5625 c -6.558593 11.617187 -16.328124 45.054687 -16.328124 45.054687 c 3.902343 -10.539063 24.269531 -48.726563 25.914062 -51.195313 c 1.648438 -2.46875 2.039062 -4.148437 0.160156 -5.109374 c -0.351562 -0.179688 -0.683594 -0.304688 -1.035156 -0.3125 z m -217.828125 10.183593 c -0.222656 0 -0.441406 0.003907 -0.660156 0.027344 c -4.46875 0.398437 -6.847657 4.820313 -7.96875 6.464844 c -0.902344 1.320312 -2.429688 1.214843 -4.203125 2.078125 c -1.117188 0.542968 -2.726563 1.601562 -1.492188 4.59375 c 0.917969 2.21875 2.535156 2.617187 3.957032 4.746094 c 2.632812 3.945312 4.554687 6.109374 4.554687 6.109374 s -6.59375 -0.054687 -10.585937 1.960938 c -3.269532 1.652344 -5.285157 5.128906 -3.503907 6.757812 c 1.78125 1.625 2.960938 2.039063 2.675781 3.53125 c -0.261718 1.359376 -0.371093 3.726563 1.132813 5.898438 c 1.5 2.167969 6.914063 2.355469 9.125 2.089844 c 2.425781 -0.296875 8.398437 -7.15625 8.871094 -8.09375 c -0.066407 0.265625 -0.78125 3.023437 -2.460938 8.570312 c -0.859375 2.835938 -0.625 7.953125 2.351563 9.171875 c 2.09375 0.855469 2.511718 -0.941406 4.625 -0.152343 c 1.609375 0.597656 2.734375 -0.535157 3.785156 -0.828126 c 1.40625 -0.394531 4.171875 0.574219 5.171875 -2.648437 c 0.855469 -2.746094 2.101563 -4.761719 2.101563 -4.761719 l -2.90625 -5.683594 l -0.078126 2.90625 c -0.457031 -3.628906 -1.765624 -5.671874 -3.449218 -8.824218 c 0.316406 3.0625 0.980468 6.503906 0.429687 9.585937 c -0.425781 -4.066406 -1.589843 -7.445312 -2.652343 -10.96875 c -0.007813 3.84375 -1.039063 9.855469 -1.992188 11.085938 c 0.539062 -2.695313 0.105469 -9.367188 -0.429688 -10.027344 c -0.605468 4.429687 -1.617187 8.6875 -3.332031 12.636719 c 1.023438 -5.148438 2.230469 -10.03125 2.4375 -15.414063 c -2.949219 2.835938 -5.472656 6.046875 -10.3125 6.703125 c 3.136719 -1.96875 4.738281 -4.097656 6.527344 -6.53125 c -2.9375 2.886719 -6.414063 3.550782 -10.207031 4.675782 c 3.847656 -2.320313 7.867187 -3.550782 11.285156 -8.699219 c -3.082031 2.09375 -6.171875 3.4375 -9.28125 3.285156 c 3.621094 -1.453125 7.203125 -3.050781 10.324219 -6.199219 c -2.019531 -0.027344 -4.832031 -1.066406 -7.085938 -3.472656 c 2.304688 0.972656 4.507813 1.066406 6.691407 1.023438 c -3.902344 -2.3125 -5.691407 -3.800782 -8.148438 -5.550782 l 9.511719 3.820313 l -3.878907 -8.515625 c 2.089844 2.246094 4.785157 3.882812 5.375 7.628906 c 1.367188 -2.800781 0.390626 -5.449219 -0.824218 -8.082031 c 0 0 3.007812 4.339843 3.191406 6.761719 c 0.1875 2.417968 0.402344 2.980468 0.402344 2.980468 c 1.8125 -1.984375 3.875 -3.953125 4.203125 -6.039062 c 0.179687 1.8125 -0.796875 2.796875 -1.292969 4.121094 c 3.253906 -1.371094 6.242188 -2.882813 7.929688 -5.105469 c -0.960938 2.367187 -2.671876 3.996093 -4.929688 5.082031 c 2.832031 0.328125 5.628906 -0.613281 8.425781 -1.597656 l -9.9375 4.285156 c 3.53125 0.71875 5.757813 -0.191406 8.117188 -0.9375 c -2.667969 1.605469 -5.433594 2.246094 -8.230469 2.652344 c 2.527344 0.519531 5.023438 1.074218 7.878906 1.234375 l -5.46875 0.820312 c 3.828125 1.441407 7.632813 2.96875 11.667969 3.679688 c -3.6875 0.109375 -7.066406 -0.355469 -10.261719 -1.164063 c 4.3125 1.925782 8.367188 4.765625 12.515625 7.285156 c -4.757812 -2.289062 -9.542969 -4.664062 -14.011719 -5.964843 c 3.988282 2.660156 7.214844 6.492187 10.378907 10.421875 c -3.003907 -2.679688 -6.046875 -5.613282 -8.855469 -7 l 5.886719 11.761718 s 1.296875 1.023438 3.6875 -0.480468 c 1.414062 -0.886719 2.488281 0.394531 4.082031 -1.644532 c 1.03125 -1.320312 2.269531 -4.15625 2.859375 -6.664062 c 0.1875 -0.796875 0.488281 -1.316406 0.613281 -1.832031 h 0.003906 c 0.101563 -0.394531 0.109376 -0.789063 -0.109374 -1.296875 c -1.824219 -4.285156 -7.628907 -8.144532 -7.628907 -8.144532 s 6.039063 -0.96875 7.714844 -1.613281 c 1.679687 -0.648437 0.769531 -2.277343 1.867187 -5.703125 c 1 -3.121094 -0.3125 -5.386718 -2.109374 -7.390625 c -1.800782 -2.003906 -5.722657 -3.117187 -7.15625 -2.898437 c -1.429688 0.214844 -3.363282 1.378906 -4.691407 0.722656 c -1.34375 -0.664062 -1.824219 -0.9375 -3.394531 -0.554688 c -4.015625 0.976563 -5.039062 3.710938 -5.941406 4.699219 c -1.132813 1.238281 -2.117188 2.082031 -2.117188 2.082031 s 0.101563 -6.078124 -1.972656 -8.753906 c -1.789062 -2.304687 -5.472656 -4.667968 -8.796875 -4.699218 z m 288.023437 4.632813 c -0.074218 0 -0.152343 0.011718 -0.226562 0.035156 c -0.449219 0.125 -0.707031 0.589844 -0.582031 1.039062 c 0.128906 0.445313 0.59375 0.707032 1.039062 0.582032 c 0.449219 -0.128906 0.710938 -0.59375 0.582031 -1.042969 c -0.097656 -0.351563 -0.414062 -0.597656 -0.777343 -0.613281 c -0.011719 0 -0.023438 0 -0.035157 0 z m 1.78125 0.992187 c -0.078124 0 -0.15625 0.011719 -0.230468 0.03125 c -0.449219 0.125 -0.707032 0.59375 -0.582032 1.039063 c 0.128907 0.449218 0.59375 0.707031 1.042969 0.582031 c 0.445313 -0.125 0.707031 -0.59375 0.582031 -1.039063 c -0.101562 -0.351562 -0.414062 -0.597656 -0.78125 -0.613281 c -0.011718 0 -0.023437 0 -0.035156 0 z m -14.816406 0.191407 c -0.191406 0.003906 -0.40625 0.050781 -0.65625 0.152343 c -1.910156 0.785157 -2.0625 4.066407 -1.511718 5.882813 c 1.078124 3.558594 1.535156 5.324218 1.582031 5.496094 c -0.304688 -0.601563 -4.132813 -5 -5.6875 -5.1875 c -1.421875 -0.171876 -4.890625 -0.054688 -5.855469 1.339843 c -0.964844 1.390625 -0.894531 2.910157 -0.726562 3.78125 c 0.183593 0.953125 -0.574219 1.222657 -1.714844 2.265625 c -1.144532 1.042969 0.148437 3.273438 2.246094 4.332032 c 2.558593 1.292968 6.789062 1.257812 6.789062 1.257812 s -1.234375 1.386719 -2.921875 3.917969 c -0.910156 1.367187 -1.949219 1.621093 -2.535156 3.042969 c -0.792969 1.917968 0.238281 2.597656 0.953125 2.945312 c 1.140625 0.554688 2.121094 0.484375 2.695312 1.332031 c 0.71875 1.058594 2.25 3.890625 5.113282 4.148438 c 2.234374 0.195312 4.839843 -1.421875 6.0625 -3 c 1.332031 -1.714844 1.265624 -5.613281 1.265624 -5.613281 s 0.632813 0.539062 1.359376 1.335937 c 0.578124 0.632813 1.234374 2.386719 3.808593 3.015625 c 1.007813 0.242188 1.316407 0.066406 2.179688 -0.359375 c 0.851562 -0.421875 2.089843 0.328125 3.007812 0.464844 c 0.917969 0.140625 3.433594 -0.574219 4.589844 -1.859375 c 1.152344 -1.285156 1.992187 -2.738282 1.351563 -4.738282 c -0.703126 -2.199218 -0.121094 -3.242187 -1.195313 -3.65625 c -1.078125 -0.414062 -4.949219 -1.035156 -4.949219 -1.035156 s 3.722656 -2.476562 4.890625 -5.222656 c 0.140625 -0.328125 0.136719 -0.578125 0.070313 -0.835938 c -0.082032 -0.328124 -0.273438 -0.660156 -0.394532 -1.171874 c -0.378906 -1.609376 -1.171874 -3.425782 -1.835937 -4.273438 c -1.019531 -1.308594 -1.710937 -0.484375 -2.617187 -1.054688 c -1.53125 -0.964843 -2.363282 -0.3125 -2.363282 -0.3125 l -3.777344 7.546876 c 1.804688 -0.890626 3.753907 -2.773438 5.683594 -4.488282 c -2.03125 2.519532 -4.101562 4.976563 -6.660156 6.683594 c 2.867188 -0.835938 5.933594 -2.359375 8.988281 -3.828125 c -2.660156 1.617187 -5.261719 3.4375 -8.027343 4.671875 c 2.046874 -0.515625 4.214843 -0.816406 6.582031 -0.746094 c -2.589844 0.457032 -5.027344 1.4375 -7.484375 2.363282 l 3.507812 0.523437 c -1.832031 0.101563 -3.429687 0.457031 -5.050781 0.792969 c 1.789063 0.257812 3.566406 0.671875 5.277344 1.699218 c -1.511719 -0.476562 -2.941407 -1.0625 -5.207031 -0.601562 l 6.375 2.75 c -1.792969 -0.632812 -3.589844 -1.238281 -5.40625 -1.027344 c 1.449218 0.699219 2.546874 1.742188 3.164062 3.261719 c -1.082031 -1.429687 -3 -2.398437 -5.085938 -3.273437 c 0.320313 0.847656 0.945313 1.476562 0.828126 2.640624 c -0.210938 -1.339843 -1.53125 -2.597656 -2.695313 -3.871093 c 0 0 -0.136719 0.359375 -0.257813 1.910156 c -0.117187 1.550781 -2.046874 4.335937 -2.046874 4.335937 c 0.777343 -1.6875 1.40625 -3.386718 0.527343 -5.183593 c -0.375 2.402343 -2.105469 3.453125 -3.445312 4.894531 l 2.488281 -5.460938 l -6.101562 2.449219 c 1.578124 -1.125 2.722656 -2.078125 5.226562 -3.558593 c -1.402344 -0.03125 -2.8125 0.027343 -4.289062 0.65625 c 1.441406 -1.546876 3.246093 -2.210938 4.542968 -2.230469 c -2.003906 -2.015625 -4.300781 -3.042969 -6.625 -3.976563 c 1.996094 -0.097656 3.976563 0.769532 5.953125 2.109375 c -2.1875 -3.300781 -4.765625 -4.089843 -7.238281 -5.578125 c 2.433594 0.722656 4.664062 1.144532 6.546875 2.996094 c -1.144531 -1.558594 -2.171875 -2.925781 -4.183594 -4.1875 c 3.101563 0.421875 4.722657 2.480469 6.613281 4.300781 c -0.132812 -3.453125 -0.90625 -6.582031 -1.5625 -9.886719 c 1.097657 2.535157 1.746094 5.261719 2.136719 8.105469 c 0.339844 -0.421875 0.621094 -4.703125 0.273438 -6.433593 c 0.609375 0.792968 1.273437 4.644531 1.277343 7.113281 c 0.683594 -2.261719 1.429688 -4.429688 1.703126 -7.035157 c 0.351562 1.976563 -0.074219 4.183594 -0.277344 6.144532 c 1.082031 -2.019532 1.917968 -3.328125 2.214844 -5.65625 l 0.046874 1.863281 l 1.863282 -3.644531 s -0.796875 -1.292969 -1.34375 -3.054688 c -0.644532 -2.066406 -2.417969 -1.445312 -3.320313 -1.699218 c -0.671875 -0.1875 -1.394531 -0.914063 -2.425781 -0.527344 c -1.101562 0.40625 -1.484375 -0.277344 -2.3125 -0.25 z m 11.519532 0.273437 c -0.105469 0.003906 -0.210938 0.019531 -0.316407 0.046875 c -0.648437 0.183594 -1.027343 0.859375 -0.84375 1.511719 c 0.183594 0.648437 0.863281 1.027343 1.511719 0.84375 c 0.652344 -0.1875 1.027344 -0.863281 0.84375 -1.511719 c -0.152344 -0.535156 -0.640625 -0.898438 -1.195312 -0.890625 z m 2.300781 0.132813 c -1.757813 3.8125 -10.65625 17.523437 -11.367188 18.40625 c -0.707031 0.878906 -0.890625 1.488281 -0.144531 1.878906 c 0.75 0.386718 1.292969 0.195312 4.148438 -3.972656 c 2.855468 -4.167969 7.363281 -16.3125 7.363281 -16.3125 z m 0.5625 1.398437 c -0.105469 0.003906 -0.210938 0.019531 -0.3125 0.046875 c -0.652344 0.183594 -1.027344 0.863281 -0.84375 1.511719 c 0.183593 0.648437 0.859375 1.027343 1.507812 0.84375 c 0.652344 -0.183594 1.027344 -0.859375 0.84375 -1.511719 c -0.148437 -0.53125 -0.640625 -0.898438 -1.195312 -0.890625 z m -150.300781 2.644531 c -0.082032 0 -0.167969 0.007813 -0.25 0.019532 c -0.445313 0.058593 -0.863282 0.257812 -1.1875 0.566406 c -0.855469 0.808594 -0.890626 2.160156 -0.078126 3.011718 c 0.808594 0.851563 2.15625 0.886719 3.007813 0.074219 c 0.851563 -0.808593 0.886719 -2.15625 0.078125 -3.007812 c -0.410156 -0.429688 -0.980469 -0.667969 -1.570312 -0.660157 z m 5.148437 0.132813 c -0.085937 0.003906 -0.171875 0.007812 -0.253906 0.019531 c -0.445313 0.058594 -0.863281 0.257812 -1.1875 0.566406 c -0.851563 0.8125 -0.886719 2.15625 -0.078125 3.011719 c 0.808594 0.851563 2.15625 0.886719 3.007812 0.078125 c 0.851563 -0.8125 0.886719 -2.160156 0.078125 -3.011719 c -0.410156 -0.429687 -0.980469 -0.667969 -1.566406 -0.660156 z m -2.496094 2.746093 c 0.46875 8.957032 -2.167969 39.503907 -3.335937 50.496094 h 5.296875 c 0.234375 -1.527344 0.46875 -3.230468 0.71875 -5.367187 c 1.496093 -12.667969 -2.679688 -45.128907 -2.679688 -45.128907 z m -3.816406 2.03125 c -0.792969 0 -1.554687 0.300782 -2.132813 0.847657 c -1.238281 1.175781 -1.289062 3.132812 -0.113281 4.367187 c 1.175781 1.238282 3.132813 1.289063 4.371094 0.113282 c 1.234375 -1.171876 1.285156 -3.128907 0.109375 -4.367188 c -0.5625 -0.59375 -1.339844 -0.941406 -2.160156 -0.960938 c -0.027344 0 -0.050782 0 -0.074219 0 z m 8.203125 0.066407 c -0.792969 0 -1.554688 0.300781 -2.128906 0.847656 c -1.238282 1.175781 -1.289063 3.132813 -0.113282 4.367187 c 1.175782 1.238282 3.128907 1.289063 4.367188 0.113282 c 1.238281 -1.175782 1.289062 -3.128906 0.113281 -4.367188 c -0.5625 -0.59375 -1.339843 -0.941406 -2.160156 -0.960937 c -0.027344 0 -0.050781 0 -0.078125 0 z m -138.929688 6.425781 c -0.265624 -0.011719 -0.507812 0.078125 -0.761718 0.210938 c -1.164063 0.609374 -0.878906 1.558593 0.226562 2.929687 c 1.109375 1.375 14.984375 22.757813 17.722656 28.703125 c 0 0 -7.027343 -18.941406 -11.480468 -25.4375 c -3.476563 -5.074219 -4.757813 -6.371094 -5.707032 -6.40625 z m 120.335938 1.082031 c -2.230469 -0.027343 -4.148438 1.578125 -5.664062 1.902344 c -1.726563 0.367187 -4.195313 -0.40625 -6.054688 1.664063 c -2.4375 2.71875 -4.390625 0.453124 -6.746094 3.257812 c -3.347656 3.988281 0.160156 11.507812 3.527344 14.929688 c 6.585938 6.6875 9.683594 10.105468 9.980469 10.433593 c -1.378907 -0.988281 -15.109375 -6.332031 -18.808594 -4.925781 c -3.378906 1.28125 -11 5.621094 -11.519531 9.867188 c -0.167969 1.359374 -0.066406 2.613281 0.175781 3.761718 h 22.476563 c -2.28125 -0.046875 -4.535157 -0.019531 -6.847657 -0.15625 c 6.289063 -1.238281 11.777344 -2.910156 18.160157 -0.976562 c -4.394532 -2.144532 -8.292969 -3.992188 -14.273438 -4.457032 c 7.433594 -2.699218 13.46875 0.003907 19.835938 1.855469 c -4.347657 -7.566406 -9.753907 -13.660156 -15.101563 -20.277343 c 5.433594 4.375 10.085937 9.722656 14.292969 15.617187 c 0.269531 -1.34375 -4.128906 -11.242187 -6.933594 -14.707031 c 2.292969 1.054687 8.292969 8.894531 11.199219 14.40625 c -1.125 -5.851563 -2 -11.578125 -4.449219 -17.734375 c 3.109375 4.011719 4.75 9.445312 6.597656 14.074219 c 0.042969 -5.789063 0.382813 -9.699219 -1.691406 -15.25 l 2.296875 4.109374 l -0.109375 -10.339843 s -3.300781 -1.953125 -6.59375 -5.253907 c -1.328125 -1.328124 -2.582031 -1.789062 -3.75 -1.800781 z m 29.804688 1.363281 c -1.898438 0.007813 -2.730469 1.457032 -4.75 1.300782 c -4.558594 -0.359375 -5.652344 2.085937 -5.652344 2.085937 l 0.410156 21.300781 c 2.984375 -4.105468 5.140625 -10.601562 7.4375 -16.703124 c -1.582031 8.015624 -3.328125 15.941406 -7.046875 22.757812 c 5.433594 -5.230469 10.507813 -12.234375 15.605469 -19.101562 c -4.050782 6.734374 -7.726563 13.859374 -12.464844 19.871093 c 3.972656 -3.5625 8.472656 -6.773437 13.84375 -9.394531 c -5.253906 4.054688 -9.5625 9.109375 -13.964844 14.0625 l 8.457032 -2.941406 c -3.265626 1.953125 -5.957032 4.113281 -8.613282 6.289062 h 2.835938 c 2.90625 -0.742187 5.933594 -1.171875 9.210937 -0.980468 c -1.640625 0.292968 -3.269531 0.539062 -4.9375 0.980468 h 31.757813 c -0.160156 -2.34375 -1.007813 -4.617187 -3.144532 -6.722656 c -4.152343 -4.089844 -4.078124 -7.109375 -6.96875 -6.773438 c -2.894531 0.335938 -12.285156 3.492188 -12.285156 3.492188 s 5.421875 -9.902344 4.8125 -17.421875 c -0.070312 -0.898437 -0.375 -1.453125 -0.824218 -1.945313 c -0.566407 -0.640624 -1.386719 -1.160156 -2.257813 -2.160156 c -2.734375 -3.152344 -6.648437 -6.289062 -9.121094 -7.40625 c -0.953125 -0.433594 -1.707031 -0.589844 -2.339843 -0.589844 z m 33.78125 11.957032 c -0.0625 0 -0.125 0.003906 -0.1875 0.003906 c -0.261719 0.015625 -0.523438 0.070312 -0.769532 0.164062 c -1.574218 0.574219 -2.429687 2.449219 -1.910156 4.1875 c 0.519531 1.742188 2.21875 2.6875 3.792969 2.109376 c 1.574219 -0.574219 2.425781 -2.449219 1.90625 -4.1875 c -0.40625 -1.359376 -1.550781 -2.269532 -2.832031 -2.277344 z m 7.183593 3.820312 c -0.0625 0 -0.125 0 -0.1875 0.003906 c -0.265625 0.015626 -0.523437 0.070313 -0.773437 0.160157 c -1.570313 0.578125 -2.425782 2.453125 -1.90625 4.191406 c 0.519531 1.738281 2.21875 2.683594 3.792968 2.109375 c 1.574219 -0.574219 2.425782 -2.449219 1.90625 -4.191406 c -0.40625 -1.359375 -1.550781 -2.265625 -2.832031 -2.273438 z m 80.738281 2.84375 c -0.027343 0 -0.0625 0 -0.09375 0 c -1.023437 0.027344 -1.914062 0.707032 -2.207031 1.6875 c -0.371093 1.253906 0.339844 2.570313 1.589844 2.941406 c 1.253906 0.375 2.570313 -0.339843 2.941406 -1.589843 c 0.375 -1.25 -0.335937 -2.570313 -1.589843 -2.941407 c -0.207032 -0.0625 -0.421876 -0.09375 -0.640626 -0.097656 z m -88.710937 0.859375 c -0.21875 0 -0.433594 0.039063 -0.640625 0.113281 c -1.082031 0.398438 -1.671875 1.691407 -1.3125 2.886719 c 0.355469 1.199219 1.527344 1.851563 2.609375 1.453125 c 1.085937 -0.394531 1.675781 -1.6875 1.316406 -2.886718 c -0.28125 -0.9375 -1.078125 -1.570313 -1.972656 -1.566407 z m 83.589844 1.859375 c -1.023438 0.027344 -1.914063 0.707032 -2.207031 1.691406 c -0.375 1.25 0.339843 2.566407 1.589843 2.941407 c 1.25 0.371093 2.566407 -0.339844 2.941407 -1.59375 c 0.371093 -1.25 -0.339844 -2.566407 -1.589844 -2.941407 c -0.238282 -0.070312 -0.488282 -0.101562 -0.734375 -0.097656 z m -79.125 0.625 c -0.21875 0 -0.433594 0.039063 -0.640625 0.113282 c -1.082032 0.398437 -1.671875 1.6875 -1.3125 2.886718 c 0.359375 1.199219 1.527344 1.847656 2.613281 1.453125 c 1.082031 -0.394531 1.671875 -1.6875 1.3125 -2.886719 c -0.28125 -0.941406 -1.078125 -1.574218 -1.972656 -1.570312 z m 89.171875 0.144532 c -1.496094 0.019531 -2.8125 1.011718 -3.242188 2.453124 c -0.539062 1.816407 0.492188 3.726563 2.3125 4.269532 c 1.816406 0.539062 3.726563 -0.492188 4.269532 -2.308594 c 0.539062 -1.816406 -0.496094 -3.730469 -2.3125 -4.269531 c -0.285157 -0.085938 -0.582032 -0.132813 -0.882813 -0.144531 c -0.046875 0 -0.097656 0 -0.144531 0 z m -7.042969 0.863281 c 1.996094 3.09375 5.269531 9.402343 8.804687 16.554687 h 3.191407 c -6.316407 -9.066406 -11.996094 -16.554687 -11.996094 -16.554687 z m -251.644531 0.425781 c -0.84375 0.003906 -1.589844 0.570312 -1.820313 1.386719 c -0.289062 1.015625 0.300781 2.070312 1.3125 2.355469 c 1.015625 0.289062 2.070313 -0.300782 2.359375 -1.3125 c 0.285156 -1.015626 -0.304687 -2.070313 -1.316406 -2.355469 c -0.160156 -0.046875 -0.328125 -0.070313 -0.492188 -0.074219 c -0.015624 0 -0.027343 0 -0.042968 0 z m -48.136719 0.722656 c -0.0625 0 -0.1132812 0.007813 -0.171875 0.007813 v 15.039062 c 0.0390625 0.121094 0.078125 0.238281 0.117188 0.359375 h 7.667968 c 0.273438 -2.238281 0.53125 -4.488281 0.796875 -6.734375 c -0.046875 2.234375 -0.046875 4.484375 -0.054687 6.734375 h 12.566406 c -0.707031 -3.722656 -1.90625 -7.921875 -4.035156 -11.019531 c -0.5625 -0.824219 -1.164063 -1.191406 -1.867188 -1.417969 v 0.003906 c -0.902344 -0.300781 -1.980468 -0.351562 -3.375 -0.832031 c -3.832031 -1.332031 -8.523437 -2.152343 -11.648437 -2.140625 z m 324.519531 0.007813 c -0.375 0.003906 -0.742187 0.015625 -1.066406 0.046875 c -4.632812 0.453125 -3.722656 3.320312 -6.4375 4.609375 c -4.589844 2.179687 -4.289062 5.140625 -4.289062 5.140625 l 3.363281 5.601562 h 7.664062 c -0.300781 -1.835937 -0.621093 -3.6875 -0.921875 -5.519531 c 0.582032 1.722656 1.140625 3.441406 1.6875 5.160156 z m -280.847656 1.660156 c -0.847656 0.003906 -1.589844 0.570313 -1.824219 1.386719 c -0.285156 1.015625 0.304688 2.070312 1.316407 2.355468 c 1.015624 0.289063 2.066406 -0.300781 2.355468 -1.3125 c 0.289063 -1.015624 -0.300781 -2.070312 -1.316406 -2.355468 c -0.160156 -0.046875 -0.324219 -0.070313 -0.492188 -0.074219 c -0.011718 0 -0.023437 0 -0.039062 0 z m 255.210938 0.800781 c -1.492188 0.019532 -2.8125 1.007813 -3.242188 2.449219 c -0.539062 1.820313 0.496094 3.730469 2.3125 4.269531 c 1.816406 0.542969 3.726562 -0.492187 4.269531 -2.308594 c 0.539063 -1.816406 -0.492187 -3.726562 -2.308593 -4.269531 c -0.289063 -0.085937 -0.585938 -0.132812 -0.886719 -0.140625 c -0.046875 0 -0.097657 0 -0.144531 0 z m -250.085938 1.109375 c -0.019531 0 -0.03125 0 -0.050781 0.003907 c -0.566407 0.019531 -1.058594 0.40625 -1.214844 0.953124 c -0.195313 0.699219 0.210937 1.425782 0.90625 1.621094 c 0.699219 0.199219 1.425781 -0.207031 1.625 -0.90625 c 0.195313 -0.695312 -0.210937 -1.421875 -0.90625 -1.621094 c -0.117187 -0.035156 -0.238281 -0.050781 -0.359375 -0.050781 z m -2.773438 1.550781 c -0.019531 0 -0.035156 0 -0.050781 0 c -0.570312 0.023438 -1.058593 0.40625 -1.214843 0.953126 c -0.195313 0.699218 0.207031 1.425781 0.90625 1.625 c 0.699218 0.195312 1.425781 -0.207032 1.621093 -0.90625 c 0.199219 -0.699219 -0.207031 -1.425782 -0.90625 -1.625 c -0.113281 -0.03125 -0.234375 -0.046876 -0.355469 -0.046876 z m -12.378906 7.914063 c -0.613281 -0.03125 -1.199218 0.144531 -1.847656 0.628906 c -0.5 0.367188 -1.195312 1.007813 -1.953125 1.734375 h 9.617187 c -2.796874 -1.105468 -4.394531 -2.289062 -5.816406 -2.363281 z m 209.246094 0.347656 c -2.382812 -0.007812 -5.09375 0.929688 -7.09375 2.015625 h 13.867188 c -1.664063 -1.097656 -3.601563 -1.628906 -5.628907 -1.933594 c -0.371093 -0.054687 -0.753906 -0.082031 -1.144531 -0.082031 z m 51.140625 1.941407 c -0.34375 -0.003907 -0.664063 0.027343 -0.96875 0.074218 h 1.878906 c -0.316406 -0.046875 -0.621093 -0.070312 -0.910156 -0.074218 z m 0 0" fill="#613583"/>
            </g>
        </g>
    </pattern>
    <path d="m 20.320312 12.574219 h 87.3125 c 4.355469 0 7.886719 3.53125 7.886719 7.886719 v 87.144531 c 0 4.363281 -3.539062 7.902343 -7.902343 7.902343 h -87.296876 c -4.355468 0 -7.886718 -3.53125 -7.886718 -7.886718 v -87.15625 c 0 -4.359375 3.53125 -7.890625 7.886718 -7.890625 z m 0 0" fill="#613583" stroke="#613583" stroke-width="1.04"/>
    <path d="m 20.31864 184.575591 h 87.315774 c 4.354653 0 7.882122 3.529213 7.882122 7.884504 v 87.144737 c 0 4.363941 -3.535422 7.901804 -7.898029 7.901804 h -87.299867 c -4.354653 0 -7.886098 -3.529213 -7.886098 -7.884504 v -87.157712 c 0 -4.355291 3.531445 -7.888829 7.886098 -7.888829 z m 0 0" fill="#241f31" stroke="#dc8add" stroke-width="3.1081" transform="matrix(0.982247 0 0 0.903176 1.135834 -153.641735)"/>
    <g stroke-linecap="round" stroke-linejoin="round">
        <path d="m 83.3125 38.824219 c 1.09375 6.632812 -8.308594 12.148437 -18.558594 12.148437 s -18.558594 -5.441406 -18.558594 -12.148437 c 0 -6.710938 17.210938 -22.015625 11.871094 -13.941407 c -5.578125 8.433594 1.648438 12.515626 5.851563 0.980469 c 1.875 -5.144531 18.882812 9.847657 19.394531 12.960938 z m 0 0" fill="#dc8add" stroke="#613583" stroke-width="2.345"/>
        <path d="m 49.615019 212.303805 h 30.286969 l -17.455779 40.428735 c -0.460824 1.066253 -1.513204 1.755763 -2.673436 1.748654 c -1.160233 -0.007108 -2.206076 -0.703726 -2.657096 -1.773533 l -13.311625 -31.657032 c -0.817065 -1.944134 -0.607896 -4.172601 0.562141 -5.931918 c 1.166769 -1.755762 3.13753 -2.814906 5.248826 -2.814906 z m 0 0" fill="#dc8add" stroke="#613583" stroke-width="1.99978" transform="matrix(1.195208 0 0 1.09906 -8.198691 -181.1119)"/>
        <path d="m 43.574219 57.085938 l -0.058594 2.066406" fill="#dc8add" stroke="#613583" stroke-width="2.292"/>
        <path d="m 87.382812 50.25 c 0.039063 0.246094 -0.003906 1.445312 -0.015624 1.71875 c -0.011719 0.539062 -0.230469 -0.105469 -0.304688 0.273438" fill="#dc8add" stroke="#613583" stroke-width="2.292"/>
        <path d="m 49.616098 212.303567 h 30.286969 l -17.455779 40.428735 c -0.460824 1.066252 -1.513204 1.755762 -2.676705 1.748654 c -1.160232 -0.007109 -2.206076 -0.703727 -2.653827 -1.773533 l -13.311625 -31.657033 c -0.817065 -1.944133 -0.607896 -4.172601 0.562141 -5.928363 c 1.166769 -1.759316 3.13753 -2.81846 5.248826 -2.81846 z m 0 0" fill="url(#b)" stroke="#dc8add" stroke-width="2" transform="matrix(1.195208 0 0 1.09906 -8.145293 -183.138982)"/>
        <path d="m 83.351562 209.925781 c 1.09375 6.632813 -8.308593 12.144531 -18.558593 12.144531 s -18.558594 -5.4375 -18.558594 -12.144531 c 0 -6.710937 17.207031 -22.015625 11.871094 -13.941406 c -5.578125 8.433594 1.648437 12.515625 5.851562 0.980469 c 1.875 -5.144532 18.882813 9.847656 19.394531 12.960937 z m 0 0" fill="url(#e)" stroke="#dc8add" stroke-width="2.34534" transform="matrix(1 0 0 1 0 -172)"/>
    </g>
</svg>
